<svg xmlns="http://www.w3.org/2000/svg" width="106" height="37" viewBox="0 0 106 37" fill="white"><path d="M103.2 37h-28C73.8 37 73 35.5 73 34v-12C73 20.7 73.7 20 75.2 20h28c1.7 0 2.8 0.8 2.8 2v12C106 35.3 104.6 37 103.2 37zM75.2 21C74.2 21 74 21.3 74 22v12C74 34.8 74.4 36 75.2 36h28c0.8 0 1.8-1.1 1.8-2v-12c0-1-1.6-1-1.8-1H75.2z"/><path d="M66.2 37h-28C36.8 37 36 35.5 36 34v-12C36 20.7 36.7 20 38.2 20h28C67.9 20 69 20.8 69 22v12C69 35.3 67.6 37 66.2 37zM38.2 21C37.2 21 37 21.3 37 22v12C37 34.8 37.4 36 38.2 36h28C67 36 68 34.9 68 34v-12C68 21 66.4 21 66.2 21H38.2z"/><path d="M66.2 17h-28C36.9 17 36 15.9 36 14.4v-12C36 1 36.9 0 38.2 0h28C67.5 0 69 1 69 2.4v12C69 15.9 67.5 17 66.2 17zM38.2 1C37.1 1 37 2 37 2.4v12C37 15.2 37.3 16 38.2 16h28C67 16 68 15.3 68 14.4v-12C68 1.6 67 1 66.2 1H38.2z"/><polygon points="52.5 5.9 50.1 10 54.9 10 "/><polygon points="50.1 27 52.5 31.1 54.9 27 "/><polygon points="88 26.1 88 30.9 91.6 28.5 "/><path d="M30.2 37h-28C0.8 37 0 35.5 0 34v-12C0 20.7 0.7 20 2.2 20h28C31.9 20 33 20.8 33 22v12C33 35.3 31.6 37 30.2 37zM2.2 21C1.2 21 1 21.3 1 22v12C1 34.8 1.4 36 2.2 36h28C31 36 32 34.9 32 34v-12C32 21 30.4 21 30.2 21H2.2z"/><polygon points="14.4 28.5 18 30.9 18 26.1 "/></svg>
