# Vectary OBJ Export units=mm
mtllib Meteor1.mtl 
o 000_
g Layer_1
usemtl Default material_0
o 001_
g Asteroids_Mesh
usemtl Default material_0
v 0.913 1.593 -1.848
v 0.566 2.536 -1.075
v 1.375 1.787 -0.982
v -2.331 0.517 -0.057
v -2.319 0.406 0.949
v -2.174 1.221 -0.334
v -1.457 1.330 0.897
v -1.088 0.812 1.216
v -1.108 0.946 -1.808
v -0.124 -0.485 -1.459
v -0.727 -0.329 -1.421
v -0.962 -0.940 -0.316
v -0.246 -1.743 0.788
v -1.068 -1.818 0.512
v 0.796 0.130 1.962
v 0.779 -0.500 1.886
v 1.588 0.010 2.047
v 2.448 0.435 1.796
v 1.671 1.897 0.628
v 2.025 0.822 1.698
v 2.066 -0.689 0.194
v 2.057 0.337 -0.114
v 2.768 -0.042 0.224
v -2.175 -1.064 -0.435
v -1.931 -1.826 1.185
v -2.649 -0.857 0.319
v 0.139 -1.525 1.353
v -0.903 -2.070 1.344
v -0.542 -0.939 2.482
v -0.110 0.150 2.129
v -1.488 -0.608 2.504
v -1.889 1.993 -1.684
v -2.129 0.875 -1.376
v -1.740 1.283 -0.917
v 0.578 1.313 -2.354
v 1.115 -0.192 -1.419
v 1.030 -0.277 -0.812
v 0.617 -0.766 -0.668
v 0.012 1.647 -2.240
v 0.618 0.358 -1.964
v 0.469 -0.245 -1.558
v -0.012 -0.665 2.110
v 1.256 -1.254 0.600
v 0.968 -0.981 1.340
v 2.348 1.140 0.770
v 2.098 1.779 0.309
v 2.308 -0.615 1.914
v 2.238 -1.148 1.439
v 1.379 0.186 -1.555
v 2.990 -0.337 1.254
v -0.490 2.583 -0.702
v -1.650 1.739 0.390
v -1.116 1.597 0.374
v -2.684 -0.900 1.005
v -1.711 -1.224 2.386
v -2.553 -0.703 1.666
v -2.259 -0.280 1.848
v -2.624 -0.487 -0.305
v -2.478 0.464 -0.690
v -2.229 0.474 -1.616
v -2.740 0.114 0.509
v -1.675 -0.190 -1.614
v -1.849 0.801 -1.775
v -2.407 -0.469 -0.941
v -0.160 0.680 1.977
v -1.668 -1.809 0.577
v -1.637 -0.809 -1.008
v -0.608 1.632 0.729
v -0.139 2.095 0.322
v 0.906 -1.251 0.229
v -2.524 0.161 1.200
v 0.588 2.124 0.191
v 2.170 1.601 0.036
v -1.404 -1.588 2.014
v -0.792 -1.746 1.841
v -2.135 1.105 0.558
v 1.190 1.071 1.518
v -0.582 1.973 -2.085
v -0.367 1.107 -2.068
v 1.587 -0.320 -0.411
v -0.383 2.478 -2.042
v -0.466 2.716 -1.427
v 0.075 -1.126 -0.466
v -1.394 2.030 -1.963
v -1.763 2.246 -1.294
v -1.293 -1.521 2.557
v -1.646 1.985 -0.998
v -1.444 2.511 -1.320
v 0.710 1.689 1.104
v 1.887 0.428 -1.142
v 0.239 -1.222 1.690
v 2.834 0.313 0.815
v -2.059 -1.521 1.652
v -1.168 -0.711 -0.910
v 1.221 1.159 -1.795
v 1.816 1.629 -0.559
v -0.499 -1.640 2.190
vt 0.496 0.761
vt 0.513 0.726
vt 0.533 0.751
vt 0.405 0.653
vt 0.434 0.622
vt 0.425 0.665
vt 0.480 0.639
vt 0.501 0.626
vt 0.419 0.746
vt 0.430 0.809
vt 0.410 0.788
vt 0.390 0.823
vt 0.437 0.909
vt 0.371 0.870
vt 0.608 0.627
vt 0.610 0.587
vt 0.646 0.668
vt 0.647 0.757
vt 0.581 0.718
vt 0.624 0.730
vt 0.548 0.837
vt 0.555 0.799
vt 0.576 0.806
vt 0.333 0.598
vt 0.422 0.532
vt 0.372 0.608
vt 0.490 0.470
vt 0.537 0.492
vt 0.469 0.500
vt 0.532 0.554
vt 0.565 0.600
vt 0.495 0.570
vt 0.434 0.708
vt 0.398 0.705
vt 0.420 0.685
vt 0.477 0.768
vt 0.485 0.815
vt 0.491 0.828
vt 0.469 0.841
vt 0.464 0.755
vt 0.469 0.791
vt 0.456 0.811
vt 0.564 0.560
vt 0.497 0.925
vt 0.527 0.877
vt 0.557 0.897
vt 0.599 0.752
vt 0.579 0.738
vt 0.621 0.831
vt 0.600 0.907
vt 0.590 0.850
vt 0.496 0.801
vt 0.611 0.803
vt 0.495 0.695
vt 0.469 0.654
vt 0.492 0.656
vt 0.404 0.587
vt 0.475 0.553
vt 0.435 0.584
vt 0.454 0.590
vt 0.348 0.660
vt 0.387 0.676
vt 0.386 0.716
vt 0.398 0.630
vt 0.382 0.749
vt 0.401 0.725
vt 0.359 0.707
vt 0.556 0.616
vt 0.340 0.843
vt 0.337 0.754
vt 0.365 0.766
vt 0.518 0.655
vt 0.527 0.678
vt 0.498 0.873
vt 0.430 0.612
vt 0.543 0.700
vt 0.572 0.747
vt 0.471 0.533
vt 0.493 0.516
vt 0.446 0.643
vt 0.600 0.683
vt 0.454 0.740
vt 0.444 0.761
vt 0.521 0.825
vt 0.469 0.732
vt 0.481 0.715
vt 0.442 0.850
vt 0.442 0.721
vt 0.446 0.698
vt 0.490 0.542
vt 0.444 0.688
vt 0.457 0.701
vt 0.399 0.523
vt 0.429 0.488
vt 0.574 0.676
vt 0.522 0.794
vt 0.563 0.517
vt 0.597 0.786
vt 0.439 0.549
vt 0.384 0.791
vt 0.501 0.773
vt 0.645 0.847
vt 0.532 0.932
vt 0.551 0.754
vt 0.514 0.526
vn 0.615 0.542 -0.573
vn 0.472 0.718 -0.512
vn 0.390 0.877 -0.281
vn 0.311 0.944 0.105
vn 0.314 0.917 0.247
vn 0.664 0.618 -0.420
vn 0.565 0.809 -0.161
vn 0.708 0.523 -0.474
vn 0.681 0.653 -0.333
vn 0.526 0.849 -0.048
vn -0.746 0.661 0.085
vn -0.798 -0.057 -0.599
vn -0.906 0.417 0.069
vn -0.353 0.607 0.712
vn -0.448 0.653 0.610
vn -0.776 0.542 0.322
vn -0.919 0.391 -0.054
vn -0.802 -0.009 -0.597
vn -0.887 0.454 0.087
vn -0.910 0.076 -0.408
vn -0.450 0.479 0.754
vn 0.324 0.740 0.589
vn -0.397 0.625 0.673
vn 0.415 0.672 0.613
vn -0.090 -0.250 -0.964
vn -0.146 -0.539 -0.830
vn 0.047 -0.731 -0.681
vn -0.023 -0.636 -0.771
vn -0.053 -0.541 -0.840
vn 0.132 -0.841 -0.525
vn 0.033 -0.871 -0.490
vn 0.356 -0.734 -0.578
vn 0.149 -0.885 -0.440
vn 0.296 -0.941 -0.166
vn 0.229 -0.927 -0.298
vn 0.180 -0.844 -0.506
vn 0.235 -0.798 -0.554
vn 0.094 -0.879 -0.468
vn 0.060 0.203 0.977
vn 0.103 0.144 0.984
vn 0.010 0.267 0.964
vn 0.084 -0.338 0.937
vn 0.116 -0.451 0.885
vn 0.160 -0.384 0.909
vn 0.045 -0.423 0.905
vn 0.279 -0.474 0.835
vn 0.021 -0.561 0.827
vn 0.019 0.127 0.992
vn 0.032 0.222 0.974
vn 0.029 -0.098 0.995
vn 0.601 0.606 0.521
vn 0.701 0.599 0.387
vn 0.161 0.343 0.926
vn 0.489 0.032 0.872
vn 0.211 0.148 0.966
vn 0.026 0.193 0.981
vn 0.267 0.811 0.521
vn 0.042 0.988 -0.152
vn 0.041 0.907 -0.420
vn 0.282 0.867 0.410
vn 0.230 0.676 0.700
vn 0.127 0.546 0.828
vn -0.114 0.300 0.947
vn 0.458 -0.404 -0.792
vn 0.519 -0.684 -0.512
vn 0.523 -0.492 -0.696
vn 0.493 -0.630 -0.600
vn 0.447 -0.776 -0.445
vn 0.514 -0.242 -0.823
vn 0.846 0.225 -0.484
vn 0.654 0.535 -0.534
vn 0.883 -0.003 -0.469
vn 0.817 -0.053 -0.574
vn 0.888 -0.247 -0.388
vn 0.755 -0.577 -0.311
vn 0.290 -0.273 -0.917
vn 0.648 -0.682 -0.338
vn 0.977 0.113 -0.178
vn 0.578 0.669 -0.467
vn -0.582 -0.707 -0.400
vn -0.462 -0.774 -0.433
vn -0.653 -0.664 -0.364
vn -0.630 -0.769 -0.109
vn -0.426 -0.870 0.248
vn -0.511 -0.859 0.031
vn -0.610 -0.788 0.084
vn -0.746 -0.629 -0.219
vn -0.926 -0.347 -0.147
vn -0.888 -0.428 -0.167
vn 0.447 -0.821 0.356
vn 0.276 -0.960 -0.039
vn 0.031 -0.871 0.490
vn -0.189 -0.935 0.300
vn -0.090 -0.993 -0.080
vn 0.104 -0.978 -0.181
vn 0.290 -0.888 0.357
vn 0.281 0.010 0.960
vn 0.417 -0.085 0.905
vn 0.558 -0.207 0.803
vn 0.280 0.234 0.931
vn -0.099 0.258 0.961
vn -0.034 0.151 0.988
vn -0.201 0.340 0.919
vn -0.478 0.238 0.845
vn -0.161 0.141 0.977
vn -0.914 0.194 0.356
vn -0.406 0.771 -0.491
vn -0.671 0.034 -0.741
vn -0.786 0.583 0.207
vn -0.829 0.493 -0.265
vn -0.836 0.541 0.096
vn -0.832 0.553 -0.042
vn -0.825 0.306 -0.476
vn -0.841 0.411 -0.352
vn -0.891 0.315 0.327
vn -0.802 -0.009 -0.597
vn 0.541 0.560 -0.627
vn 0.523 -0.213 -0.825
vn 0.596 -0.011 -0.803
vn -0.246 -0.089 -0.965
vn 0.592 0.415 -0.691
vn 0.744 -0.613 -0.265
vn 0.560 -0.670 -0.487
vn 0.369 -0.772 -0.517
vn 0.303 -0.907 -0.293
vn 0.355 -0.660 -0.662
vn 0.684 -0.617 -0.391
vn 0.563 -0.767 -0.307
vn 0.463 -0.621 -0.632
vn 0.697 -0.667 -0.265
vn 0.604 -0.694 -0.392
vn 0.344 -0.824 -0.450
vn 0.213 -0.894 -0.393
vn 0.697 -0.667 -0.265
vn 0.417 -0.784 -0.460
vn 0.328 -0.778 -0.536
vn -0.273 -0.215 -0.938
vn -0.243 -0.147 -0.959
vn -0.186 -0.092 -0.978
vn -0.440 -0.381 -0.813
vn 0.309 -0.479 -0.822
vn -0.233 -0.473 -0.849
vn 0.141 -0.472 -0.870
vn -0.159 -0.374 -0.913
vn 0.141 -0.614 -0.777
vn 0.032 -0.596 -0.802
vn 0.416 -0.166 0.894
vn 0.416 -0.855 0.309
vn 0.315 -0.949 -0.020
vn 0.091 -0.970 0.224
vn 0.356 -0.908 -0.221
vn 0.347 -0.729 0.591
vn 0.494 -0.675 0.547
vn 0.180 -0.846 0.502
vn -0.151 -0.872 0.466
vn 0.856 0.459 0.238
vn 0.913 0.409 -0.001
vn 0.902 0.282 -0.327
vn 0.917 0.096 -0.387
vn 0.878 -0.212 -0.429
vn 0.796 0.544 0.266
vn 0.882 0.449 0.143
vn 0.693 0.609 0.387
vn -0.208 0.793 -0.573
vn -0.051 -0.466 0.883
vn 0.724 -0.282 0.629
vn 0.052 -0.296 0.954
vn 0.592 -0.169 0.788
vn 0.323 -0.066 0.944
vn -0.123 -0.812 0.570
vn 0.692 -0.529 0.492
vn 0.572 -0.742 -0.350
vn 0.555 -0.340 -0.759
vn 0.724 -0.282 0.629
vn 0.652 -0.680 -0.335
vn 0.817 0.319 0.481
vn 0.916 0.364 0.168
vn 0.956 0.292 0.024
vn 0.796 -0.025 0.605
vn -0.110 0.860 0.498
vn -0.166 0.889 0.427
vn -0.260 0.813 0.521
vn -0.210 0.901 0.380
vn -0.167 0.929 0.330
vn -0.122 0.913 0.389
vn 0.215 0.735 0.643
vn -0.664 0.699 0.267
vn -0.005 0.765 0.644
vn -0.235 0.732 0.640
vn 0.283 0.717 0.636
vn 0.118 0.769 0.628
vn -0.117 0.766 0.632
vn -0.789 -0.565 0.242
vn -0.945 -0.249 0.214
vn -0.928 -0.338 0.157
vn -0.857 -0.480 0.186
vn -0.897 -0.398 0.190
vn -0.721 -0.516 0.462
vn -0.635 -0.040 0.772
vn -0.678 -0.249 0.692
vn -0.684 -0.651 0.329
vn -0.922 0.182 0.341
vn -0.869 0.163 0.467
vn -0.808 0.203 0.553
vn -0.422 0.659 0.622
vn -0.548 0.456 0.701
vn -0.616 0.291 0.732
vn -0.501 0.512 0.698
vn -0.315 0.719 0.619
vn -0.947 -0.189 -0.259
vn -0.959 0.163 -0.232
vn -0.897 0.427 -0.110
vn -0.765 0.644 -0.020
vn -0.906 0.223 -0.360
vn -0.382 -0.322 -0.866
vn -0.999 0.027 0.027
vn -0.618 0.779 0.108
vn -0.068 -0.364 -0.929
vn -0.236 -0.484 -0.843
vn -0.201 -0.361 -0.911
vn 0.043 -0.442 -0.896
vn -0.175 -0.595 -0.785
vn -0.091 -0.607 -0.789
vn 0.018 -0.546 -0.838
vn -0.180 -0.137 -0.974
vn -0.372 -0.024 -0.928
vn -0.688 0.197 -0.699
vn -0.897 -0.312 -0.315
vn -0.521 -0.605 -0.602
vn -0.639 -0.515 -0.572
vn -0.339 0.686 0.643
vn 0.015 0.527 0.850
vn 0.307 0.289 0.907
vn -0.260 0.629 0.733
vn -0.223 -0.906 -0.360
vn -0.069 -0.793 -0.606
vn -0.137 -0.763 -0.632
vn 0.252 -0.773 -0.582
vn 0.168 -0.797 -0.580
vn 0.015 -0.785 -0.619
vn -0.349 0.730 0.588
vn -0.094 0.871 0.483
vn 0.356 -0.796 -0.489
vn -0.854 0.414 0.315
vn -0.619 0.695 0.367
vn -0.806 0.524 0.274
vn -0.412 0.825 0.388
vn 0.258 0.948 0.185
vn 0.301 0.944 0.133
vn 0.247 0.932 0.267
vn 0.391 0.899 -0.199
vn 0.784 0.601 -0.153
vn 0.252 0.917 -0.309
vn 0.041 0.907 -0.420
vn 0.754 -0.458 -0.471
vn 0.561 0.813 -0.156
vn -0.180 -0.916 0.358
vn 0.177 -0.852 0.492
vn 0.239 -0.892 0.384
vn 0.452 -0.841 0.297
vn -0.627 0.594 0.504
vn -0.879 0.467 0.099
vn -0.738 0.536 0.409
vn -0.074 0.396 0.915
vn -0.180 -0.044 -0.983
vn -0.165 -0.256 -0.952
vn 0.499 -0.660 -0.562
vn 0.251 -0.833 -0.493
vn 0.583 -0.517 -0.626
vn -0.130 0.161 -0.978
vn -0.165 0.881 -0.443
vn -0.370 0.800 -0.473
vn 0.166 0.869 -0.467
vn 0.421 0.782 -0.460
vn -0.137 0.932 -0.335
vn -0.047 0.995 -0.092
vn -0.087 0.969 -0.230
vn 0.067 0.998 0.013
vn -0.112 0.863 -0.493
vn 0.051 -0.877 -0.478
vn -0.371 0.740 -0.561
vn -0.267 0.032 -0.963
vn -0.917 0.127 0.378
vn -0.804 0.299 0.513
vn -0.677 0.398 0.619
vn -0.628 0.730 -0.270
vn 0.001 -0.109 0.994
vn -0.180 0.019 0.983
vn -0.625 -0.575 0.528
vn -0.135 -0.980 0.148
vn 0.207 -0.141 0.968
vn -0.650 0.611 0.452
vn -0.571 0.703 0.424
vn -0.675 0.525 0.519
vn -0.804 0.040 -0.593
vn -0.452 0.585 0.673
vn -0.431 0.901 -0.052
vn -0.444 0.739 -0.507
vn -0.381 0.877 -0.294
vn 0.141 0.521 0.842
vn 0.037 0.648 0.761
vn -0.032 0.683 0.730
vn 0.703 -0.514 -0.492
vn 0.784 0.002 -0.620
vn 0.661 -0.683 -0.311
vn 0.834 0.198 -0.515
vn 0.865 0.286 -0.413
vn 0.522 -0.514 0.680
vn 0.536 -0.599 0.595
vn 0.477 -0.817 0.324
vn 0.801 0.413 -0.435
vn 0.767 0.475 0.432
vn 0.880 0.260 -0.398
vn 0.654 0.535 -0.534
vn -0.669 -0.602 0.435
vn -0.510 -0.787 0.348
vn -0.265 -0.913 0.309
vn -0.759 -0.502 0.414
vn 0.005 -0.829 -0.559
vn -0.052 -0.851 -0.523
vn 0.050 -0.794 -0.606
vn 0.732 0.218 -0.646
vn 0.905 0.017 -0.426
vn 0.878 -0.212 -0.429
vn 0.662 0.580 -0.475
vn 0.905 0.180 -0.386
vn 0.856 0.348 -0.381
vn 0.081 -0.985 0.150
vn -0.106 -0.959 0.264
vn 0.187 -0.982 0.022
vn 0.502 -0.306 0.809
f 1/1/1 2/2/2 3/3/6 
f 4/4/11 5/5/13 6/6/17 
f 7/7/21 5/5/14 8/8/23 
f 9/9/25 10/10/26 11/11/29 
f 12/12/30 13/13/33 14/14/36 
f 15/15/39 16/16/42 17/17/48 
f 18/18/51 19/19/57 20/20/61 
f 21/21/64 22/22/69 23/23/76 
f 24/24/80 25/25/83 26/26/87 
f 13/27/34 27/28/90 28/29/91 
f 29/30/97 30/31/100 31/32/101 
f 32/33/106 33/34/109 34/35/115 
f 35/36/117 2/2/2 1/1/1 
f 36/37/122 37/38/130 38/39/134 
f 39/40/137 40/41/140 41/42/144 
f 42/43/147 30/31/100 29/30/98 
f 27/44/90 43/45/148 44/46/152 
f 18/18/52 45/47/156 46/48/161 
f 47/49/165 16/50/43 48/51/170 
f 40/41/141 35/36/118 49/52/173 
f 47/49/166 48/51/171 50/53/174 
f 51/54/180 52/55/186 53/56/188 
f 6/6/18 34/35/116 4/4/12 
f 54/57/193 55/58/198 56/59/201 
f 57/60/205 8/8/23 5/5/15 
f 58/61/210 59/62/211 60/63/214 
f 56/59/202 61/64/216 54/57/194 
f 62/65/218 63/66/225 9/9/25 
f 58/61/210 60/63/214 64/67/228 
f 65/68/231 8/8/23 57/60/205 
f 64/67/229 60/63/215 62/65/219 
f 66/69/235 24/70/81 67/71/236 
f 68/72/241 69/73/242 51/54/181 
f 38/39/135 37/38/131 70/74/243 
f 27/44/90 13/13/34 43/45/149 
f 56/59/203 71/75/244 61/64/216 
f 71/75/245 4/4/11 61/64/217 
f 72/76/248 73/77/251 3/3/7 
f 74/78/257 28/29/92 75/79/258 
f 7/7/21 76/80/261 5/5/15 
f 65/68/232 31/32/101 30/31/100 
f 15/15/39 17/17/49 77/81/264 
f 78/82/265 39/40/138 79/83/266 
f 63/66/225 78/82/265 9/9/25 
f 37/38/132 80/84/267 70/74/243 
f 57/60/206 71/75/246 56/59/203 
f 55/58/199 57/60/207 56/59/204 
f 81/85/270 39/40/138 78/82/265 
f 81/85/271 32/33/107 82/86/275 
f 12/12/31 83/87/280 13/13/33 
f 83/87/280 70/74/243 13/13/35 
f 73/77/252 46/48/162 45/47/157 
f 84/88/281 32/33/107 81/85/272 
f 32/33/106 34/35/115 85/89/283 
f 86/90/287 29/30/97 31/32/102 
f 83/87/280 38/39/136 70/74/243 
f 10/10/27 38/39/136 83/87/280 
f 87/91/292 51/54/182 88/92/296 
f 51/54/183 87/91/293 52/55/187 
f 50/53/175 48/51/172 23/23/77 
f 25/25/84 28/29/93 74/78/257 
f 24/24/80 66/93/235 25/25/83 
f 8/8/23 68/72/241 53/56/189 
f 66/93/235 28/29/94 25/25/85 
f 14/94/36 13/27/35 28/29/95 
f 89/95/300 65/68/233 30/31/100 
f 36/37/123 49/52/173 90/96/303 
f 60/63/215 63/66/225 62/65/220 
f 59/62/212 33/34/110 60/63/214 
f 57/60/208 31/32/103 65/68/234 
f 55/58/199 31/32/104 57/60/207 
f 63/66/225 84/88/282 78/82/265 
f 78/82/265 84/88/282 81/85/270 
f 19/19/58 73/77/253 72/76/249 
f 42/43/147 29/30/99 91/97/308 
f 71/75/246 5/5/16 4/4/11 
f 57/60/209 5/5/14 71/75/247 
f 42/43/147 91/97/308 16/16/43 
f 42/43/147 16/16/44 15/15/40 
f 61/64/216 26/26/88 54/57/195 
f 9/9/25 79/83/266 10/10/26 
f 9/9/25 78/82/265 79/83/266 
f 30/31/100 42/43/147 15/15/39 
f 15/15/39 89/95/301 30/31/100 
f 7/7/21 52/55/187 76/80/261 
f 8/8/24 53/56/190 7/7/22 
f 45/47/158 92/98/311 22/22/70 
f 86/90/288 31/32/105 55/58/199 
f 86/90/289 55/58/198 93/99/315 
f 62/65/221 9/9/25 11/11/29 
f 83/87/280 94/100/319 10/10/28 
f 49/52/173 35/36/119 95/101/322 
f 5/5/13 76/80/262 6/6/19 
f 45/47/156 50/53/176 92/98/312 
f 18/18/52 50/53/177 45/47/156 
f 67/71/237 64/67/229 62/65/222 
f 11/11/29 94/100/319 62/65/223 
f 8/8/23 65/68/231 68/72/241 
f 17/102/50 16/50/45 47/49/167 
f 77/81/264 17/17/49 18/18/53 
f 85/89/284 34/35/115 87/91/294 
f 12/12/32 14/14/37 67/71/238 
f 83/87/280 12/12/31 94/100/320 
f 84/88/282 63/66/226 32/33/108 
f 59/62/213 4/4/11 33/34/111 
f 33/34/112 4/4/11 34/35/115 
f 51/54/184 82/86/276 88/92/297 
f 72/76/250 51/54/181 69/73/242 
f 25/25/84 74/78/257 93/99/316 
f 26/26/89 25/25/83 54/57/196 
f 81/85/273 82/86/277 2/2/3 
f 2/2/4 82/86/278 51/54/185 
f 50/53/178 23/23/78 92/98/313 
f 23/23/79 22/22/71 92/98/314 
f 91/103/308 44/46/153 16/50/46 
f 16/50/47 44/46/154 48/51/170 
f 18/18/54 47/49/168 50/53/179 
f 17/102/48 47/49/169 18/18/55 
f 96/104/323 45/47/159 22/22/72 
f 39/40/138 35/36/120 40/41/142 
f 27/44/90 44/46/152 91/103/309 
f 75/79/259 28/29/96 27/28/90 
f 24/70/82 58/61/210 64/67/230 
f 24/70/80 64/67/229 67/71/237 
f 21/21/65 23/23/77 48/51/172 
f 48/51/170 44/46/155 43/45/150 
f 12/12/30 67/71/239 94/100/319 
f 94/100/321 67/71/240 62/65/224 
f 97/105/328 86/90/290 74/78/257 
f 74/78/257 86/90/290 93/99/317 
f 41/42/145 36/37/124 38/39/136 
f 46/48/163 19/19/57 18/18/52 
f 19/19/59 46/48/164 73/77/254 
f 97/105/329 74/78/257 75/79/258 
f 36/37/125 80/84/268 37/38/133 
f 59/62/213 61/64/217 4/4/11 
f 61/64/216 59/62/211 58/61/210 
f 94/100/319 11/11/29 10/10/28 
f 81/85/270 35/36/120 39/40/139 
f 58/61/210 26/26/88 61/64/216 
f 58/61/210 24/24/82 26/26/89 
f 88/92/296 85/89/285 87/91/292 
f 80/84/269 22/22/73 21/21/66 
f 14/94/38 28/29/95 66/93/235 
f 67/71/240 14/14/36 66/69/235 
f 89/95/301 77/81/264 20/20/62 
f 20/20/61 19/19/57 89/95/301 
f 49/52/173 95/101/322 90/96/304 
f 13/13/35 70/74/243 43/45/151 
f 95/101/322 35/36/121 1/1/1 
f 95/101/322 1/1/1 3/3/8 
f 53/56/191 52/55/186 7/7/22 
f 96/104/324 73/77/255 45/47/160 
f 96/104/325 3/3/9 73/77/256 
f 6/6/19 76/80/263 52/55/187 
f 70/74/243 80/84/267 21/21/67 
f 65/68/234 89/95/302 68/72/241 
f 97/105/330 75/79/260 91/97/310 
f 86/90/291 97/105/331 29/30/98 
f 27/28/90 91/97/309 75/79/259 
f 82/86/279 32/33/107 88/92/298 
f 32/33/107 85/89/286 88/92/299 
f 10/10/27 41/42/145 38/39/136 
f 77/81/264 18/18/56 20/20/63 
f 54/57/197 25/25/86 93/99/315 
f 55/58/200 54/57/197 93/99/318 
f 29/30/99 97/105/331 91/97/308 
f 77/81/264 89/95/301 15/15/41 
f 79/83/266 41/42/146 10/10/28 
f 79/83/266 39/40/138 41/42/146 
f 41/42/145 40/41/143 36/37/126 
f 80/84/269 36/37/127 22/22/74 
f 36/37/128 90/96/305 22/22/75 
f 95/101/322 3/3/8 90/96/306 
f 51/54/185 72/76/248 2/2/4 
f 2/2/5 72/76/248 3/3/10 
f 90/96/307 96/104/326 22/22/72 
f 3/3/8 96/104/327 90/96/306 
f 70/74/243 21/21/68 43/45/151 
f 43/45/151 21/21/68 48/51/172 
f 69/73/242 19/19/60 72/76/248 
f 19/19/57 69/73/242 89/95/302 
f 40/41/141 49/52/173 36/37/129 
f 32/33/108 63/66/227 33/34/113 
f 33/34/114 63/66/227 60/63/214 
f 34/35/116 6/6/20 87/91/295 
f 68/72/241 51/54/181 53/56/192 
f 68/72/241 89/95/302 69/73/242 
f 6/6/19 52/55/187 87/91/292 
f 81/85/274 2/2/2 35/36/117 
