# Vectary OBJ Export units=mm
mtllib Meteors.mtl 
o 000_
g Asteroids_Mesh
usemtl Default material_0
v -1.072 -1.921 1.872
v -0.690 -2.440 0.392
v 0.568 -2.027 1.210
v -2.279 1.789 0.317
v -1.138 2.061 1.151
v -1.347 2.299 -0.207
v -0.994 -1.289 2.559
v 1.808 -1.405 1.968
v -0.203 -0.009 2.608
v -0.872 -0.769 -2.260
v 0.120 -0.545 -1.879
v -0.651 -1.308 -1.680
v -2.883 -0.830 -0.763
v -3.058 -0.112 -0.837
v -2.496 -0.610 -1.743
v -3.802 -1.145 -0.360
v -3.931 -0.413 1.675
v -4.139 -0.842 0.431
v -3.649 -0.972 1.966
v 3.134 -0.017 0.228
v 2.267 1.164 -0.172
v 2.410 0.820 1.302
v 2.693 0.184 -0.580
v 0.742 1.559 -1.022
v -1.126 0.169 2.440
v 1.102 0.775 2.294
v -0.969 1.231 2.170
v 1.162 1.509 0.652
v -1.406 0.630 -2.512
v -2.636 0.914 -1.589
v -3.515 0.380 0.160
v -2.103 1.816 -1.342
v -1.112 1.819 -1.823
v -1.654 1.293 -2.287
v -1.633 2.209 -1.069
v -1.115 2.236 -1.287
v 0.550 1.710 0.132
v -3.898 0.187 1.079
v -3.788 -0.020 -0.331
v -1.397 -0.023 2.295
v 1.789 -1.800 1.459
v 2.890 -1.855 0.294
v 3.945 -1.211 0.587
v 3.188 -1.596 -0.096
v 3.031 -0.883 -0.651
v 3.435 -1.608 0.953
v 2.489 -0.080 1.704
v 2.005 0.523 1.999
v 0.295 -1.686 -0.596
v -1.721 -1.535 -1.329
v -2.214 -0.244 -2.311
v -2.003 -0.989 -1.814
v 2.303 -0.413 1.872
v 0.938 1.160 2.105
v 2.383 -1.067 -0.657
v -3.488 0.629 0.519
v -2.536 -0.086 2.518
v -3.068 -0.782 2.572
v -2.127 -1.289 2.258
v -2.144 1.223 1.668
v 0.479 0.026 -1.474
v -0.762 0.406 -1.932
v -0.737 0.440 -1.455
v -0.942 1.082 -1.877
v -0.109 0.214 -1.023
v -0.031 1.210 -1.326
v 1.179 0.273 -1.186
v -0.818 -1.499 2.273
v -0.461 1.661 -1.427
v -2.007 0.367 -2.540
v -2.686 0.161 -1.946
v 3.698 -0.460 0.941
v -3.559 -0.512 2.277
v -2.897 -1.388 2.207
v -0.532 2.182 0.536
v 1.764 -0.783 -0.599
v -0.392 -2.311 -0.209
v -1.350 -2.289 -0.360
v -2.774 0.863 1.214
v -3.472 0.243 1.843
v 2.751 -1.480 1.672
v 3.199 -0.724 1.853
v -2.005 -2.281 0.479
v -2.133 -1.885 -0.599
v -3.005 -1.654 1.606
v -2.711 -1.869 0.495
v 2.013 0.214 -0.989
v 1.959 -0.530 -0.940
v -2.192 0.185 2.015
v 3.222 -0.502 -0.451
v 0.089 1.630 1.964
v 0.464 1.664 1.786
v -3.958 -1.222 0.608
v 3.641 -1.200 1.314
v -3.023 -1.273 -0.354
v 1.280 -1.814 0.357
v 0.614 1.908 0.663
vt 0.670 0.466
vt 0.693 0.407
vt 0.765 0.401
vt 0.561 0.218
vt 0.588 0.174
vt 0.604 0.206
vt 0.511 0.068
vt 0.754 0.031
vt 0.587 0.093
vt 0.670 0.317
vt 0.702 0.298
vt 0.685 0.335
vt 0.584 0.341
vt 0.572 0.311
vt 0.612 0.328
vt 0.552 0.347
vt 0.484 0.310
vt 0.519 0.340
vt 0.467 0.339
vt 0.790 0.188
vt 0.737 0.185
vt 0.742 0.132
vt 0.771 0.217
vt 0.691 0.211
vt 0.535 0.123
vt 0.667 0.096
vt 0.570 0.143
vt 0.689 0.155
vt 0.644 0.283
vt 0.594 0.280
vt 0.533 0.285
vt 0.599 0.247
vt 0.636 0.243
vt 0.628 0.267
vt 0.609 0.229
vt 0.628 0.226
vt 0.671 0.174
vt 0.502 0.288
vt 0.541 0.310
vt 0.515 0.133
vt 0.832 0.362
vt 0.833 0.277
vt 0.843 0.211
vt 0.826 0.256
vt 0.799 0.243
vt 0.857 0.238
vt 0.764 0.109
vt 0.720 0.106
vt 0.723 0.345
vt 0.644 0.359
vt 0.625 0.314
vt 0.632 0.340
vt 0.760 0.089
vt 0.661 0.110
vt 0.790 0.269
vt 0.525 0.271
vt 0.476 0.203
vt 0.453 0.248
vt 0.440 0.163
vt 0.531 0.185
vt 0.709 0.271
vt 0.668 0.277
vt 0.674 0.265
vt 0.653 0.259
vt 0.692 0.258
vt 0.677 0.232
vt 0.727 0.248
vt 0.851 0.383
vt 0.691 0.488
vt 0.656 0.231
vt 0.629 0.296
vt 0.603 0.306
vt 0.825 0.174
vt 0.467 0.285
vt 0.427 0.243
vt 0.621 0.178
vt 0.771 0.286
vt 0.704 0.383
vt 0.661 0.391
vt 0.518 0.225
vt 0.487 0.261
vt 0.825 0.091
vt 0.818 0.129
vt 0.872 0.299
vt 0.622 0.412
vt 0.624 0.379
vt 0.534 0.412
vt 0.581 0.397
vt 0.753 0.236
vt 0.767 0.266
vt 0.501 0.185
vt 0.797 0.223
vt 0.680 0.511
vt 0.592 0.468
vt 0.623 0.131
vt 0.641 0.130
vt 0.522 0.355
vt 0.527 0.433
vt 0.863 0.190
vt 0.579 0.360
vt 0.777 0.345
vt 0.662 0.160
vn 0.004 -0.858 0.514
vn 0.043 -0.997 0.068
vn 0.163 -0.965 0.207
vn 0.151 -0.980 0.126
vn 0.167 -0.985 0.046
vn 0.126 -0.895 0.428
vn 0.193 -0.939 0.285
vn -0.575 0.796 0.187
vn -0.600 0.792 0.115
vn -0.639 0.760 -0.116
vn -0.153 0.916 0.371
vn -0.238 0.967 0.096
vn -0.055 0.998 0.030
vn 0.133 0.991 -0.027
vn -0.009 -0.195 0.981
vn -0.306 0.071 0.949
vn -0.184 0.014 0.983
vn -0.018 -0.751 0.660
vn 0.026 -0.658 0.753
vn 0.213 -0.113 0.970
vn 0.149 -0.696 0.702
vn 0.187 -0.395 0.900
vn 0.101 -0.051 0.994
vn 0.060 0.083 0.995
vn 0.010 0.166 0.986
vn 0.085 -0.432 -0.898
vn 0.206 -0.283 -0.937
vn 0.023 -0.504 -0.863
vn 0.001 -0.588 -0.809
vn 0.124 -0.353 -0.927
vn 0.416 -0.334 -0.846
vn 0.409 -0.086 -0.909
vn 0.441 0.479 -0.759
vn 0.445 0.269 -0.854
vn 0.213 -0.750 -0.626
vn -0.689 -0.514 -0.510
vn -0.435 -0.494 -0.753
vn -0.590 -0.563 -0.579
vn -0.560 -0.508 -0.655
vn -0.476 -0.547 -0.689
vn -0.843 -0.180 -0.506
vn -0.461 -0.076 -0.884
vn -0.767 -0.187 -0.614
vn -0.257 0.814 -0.520
vn -0.746 -0.449 -0.491
vn -0.360 -0.288 -0.887
vn -0.648 -0.046 -0.761
vn -0.847 -0.160 -0.507
vn -0.827 -0.496 -0.266
vn -0.205 -0.591 -0.780
vn -0.525 -0.793 -0.310
vn -0.247 -0.829 -0.501
vn -0.947 -0.114 0.300
vn -0.916 0.109 0.386
vn -0.887 0.219 0.406
vn -0.960 -0.253 0.121
vn -0.976 0.164 -0.140
vn -0.988 -0.003 -0.156
vn -0.956 -0.294 -0.013
vn -0.999 -0.034 0.026
vn -0.747 -0.476 0.464
vn 0.785 0.590 -0.189
vn 0.556 0.831 -0.033
vn 0.683 0.514 -0.520
vn 0.466 0.884 0.043
vn 0.752 0.568 -0.335
vn 0.618 0.736 0.276
vn 0.568 0.798 0.203
vn 0.683 0.524 0.509
vn 0.611 0.471 0.636
vn 0.581 0.807 0.105
vn 0.600 0.678 0.425
vn 0.597 0.346 -0.724
vn 0.472 0.251 -0.845
vn 0.671 0.513 -0.535
vn 0.366 0.343 -0.865
vn 0.320 0.945 -0.071
vn -0.278 0.228 0.933
vn 0.147 0.290 0.946
vn 0.197 0.280 0.939
vn 0.126 0.243 0.962
vn 0.112 0.255 0.960
vn 0.068 0.450 0.890
vn -0.249 0.297 0.922
vn -0.099 0.651 0.752
vn -0.253 0.426 0.869
vn 0.483 0.869 0.107
vn 0.380 0.177 -0.908
vn 0.576 0.296 -0.762
vn 0.614 0.371 -0.696
vn 0.432 0.244 -0.868
vn 0.187 0.141 -0.972
vn -0.760 0.431 -0.486
vn -0.715 0.612 -0.338
vn -0.642 0.664 -0.384
vn -0.861 0.409 -0.303
vn -0.387 0.775 -0.500
vn -0.928 0.043 -0.370
vn -0.568 0.733 -0.374
vn -0.652 0.688 -0.318
vn -0.272 0.765 -0.584
vn 0.539 0.390 -0.747
vn -0.451 0.553 -0.701
vn -0.512 0.589 -0.626
vn 0.126 0.360 -0.924
vn -0.207 0.570 -0.795
vn -0.356 0.878 -0.320
vn 0.278 0.944 -0.176
vn 0.390 0.843 -0.370
vn 0.074 0.978 -0.194
vn -0.022 0.846 -0.533
vn 0.184 0.710 -0.679
vn 0.344 0.927 -0.152
vn -0.921 0.384 0.066
vn -0.820 0.557 0.133
vn -0.693 0.694 0.197
vn -0.924 0.306 -0.229
vn -0.771 0.026 -0.636
vn -0.229 0.813 -0.535
vn -0.881 0.248 -0.404
vn -0.400 0.196 0.895
vn -0.103 0.102 0.989
vn -0.310 0.144 0.940
vn 0.050 0.864 0.501
vn 0.140 -0.896 0.422
vn 0.289 -0.957 -0.032
vn -0.040 -0.902 -0.430
vn 0.238 -0.962 -0.130
vn 0.762 -0.202 -0.616
vn 0.618 -0.786 0.011
vn 0.840 0.008 -0.542
vn 0.861 0.181 -0.476
vn 0.916 0.122 0.382
vn 0.470 -0.476 -0.743
vn 0.212 -0.673 -0.709
vn 0.544 -0.828 -0.137
vn 0.022 -0.733 -0.679
vn 0.499 -0.254 -0.828
vn 0.355 -0.454 -0.817
vn 0.455 -0.027 -0.890
vn 0.606 -0.009 -0.796
vn 0.356 -0.306 -0.883
vn 0.436 -0.878 0.198
vn 0.444 -0.853 0.275
vn 0.404 -0.834 0.375
vn 0.634 0.381 0.673
vn 0.538 0.300 0.787
vn 0.547 0.390 0.741
vn 0.527 0.465 0.711
vn 0.486 0.403 0.776
vn 0.573 0.423 0.702
vn 0.532 0.338 0.776
vn 0.446 0.201 0.872
vn 0.259 -0.770 -0.583
vn -0.103 -0.801 -0.590
vn -0.468 -0.399 -0.788
vn -0.387 -0.408 -0.827
vn -0.554 -0.408 -0.726
vn -0.386 -0.676 -0.628
vn 0.283 0.092 0.955
vn 0.471 0.740 0.479
vn -0.248 0.340 0.907
vn -0.095 -0.610 -0.787
vn -0.593 0.709 -0.382
vn -0.672 0.720 0.173
vn -0.452 0.748 -0.486
vn -0.693 0.720 0.030
vn 0.227 -0.131 0.965
vn -0.126 0.783 0.609
vn -0.188 0.688 0.700
vn -0.368 0.415 0.832
vn 0.136 -0.326 0.935
vn -0.238 -0.421 0.875
vn -0.392 -0.493 0.777
vn -0.345 0.333 0.878
vn 0.055 -0.172 0.984
vn 0.084 -0.535 0.840
vn 0.069 -0.049 0.996
vn -0.024 -0.754 0.657
vn -0.465 0.690 0.554
vn -0.390 0.388 0.835
vn -0.378 0.704 0.602
vn -0.365 0.495 0.789
vn -0.435 0.586 0.683
vn -0.467 0.532 0.706
vn 0.189 0.963 -0.193
vn 0.290 0.396 -0.871
vn 0.209 0.897 -0.390
vn 0.202 0.540 -0.817
vn 0.512 0.802 -0.307
vn 0.733 0.381 -0.563
vn 0.814 0.379 -0.440
vn 0.688 0.534 -0.492
vn 0.603 0.395 -0.693
vn 0.321 0.947 -0.028
vn 0.963 0.261 -0.069
vn 0.632 -0.230 -0.740
vn 0.504 -0.165 -0.848
vn 0.344 -0.160 -0.925
vn 0.780 0.157 -0.605
vn 0.830 0.250 -0.498
vn 0.693 0.122 -0.710
vn 0.189 -0.299 -0.935
vn 0.117 0.961 -0.249
vn 0.243 -0.059 -0.968
vn 0.141 0.047 -0.989
vn -0.102 0.863 -0.494
vn 0.168 0.131 -0.977
vn 0.251 0.262 -0.932
vn 0.132 -0.782 0.609
vn 0.465 0.491 -0.737
vn 0.567 0.044 -0.822
vn 0.398 0.318 -0.861
vn 0.478 0.242 -0.844
vn 0.457 0.137 -0.879
vn 0.358 0.209 -0.910
vn -0.192 -0.063 -0.979
vn -0.678 0.184 -0.711
vn -0.023 -0.058 -0.998
vn -0.518 0.012 -0.856
vn -0.820 0.024 -0.571
vn -0.851 -0.131 -0.509
vn -0.734 0.249 -0.632
vn 0.749 0.364 0.554
vn 0.767 0.639 -0.053
vn 0.788 0.570 -0.232
vn 0.715 0.540 0.444
vn 0.797 0.237 0.555
vn -0.788 -0.047 0.614
vn -0.630 0.282 0.724
vn -0.746 -0.267 0.610
vn -0.510 0.418 0.751
vn -0.148 -0.711 0.687
vn -0.368 -0.630 0.684
vn -0.342 -0.780 0.524
vn -0.158 -0.782 0.603
vn 0.183 0.983 0.028
vn 0.419 -0.757 -0.501
vn -0.342 -0.599 -0.724
vn 0.289 -0.888 -0.358
vn 0.316 -0.914 -0.255
vn 0.340 -0.721 -0.604
vn -0.080 -0.889 -0.451
vn -0.118 -0.923 -0.367
vn 0.012 -0.739 -0.673
vn -0.531 0.711 0.460
vn -0.487 0.780 0.394
vn -0.657 0.567 0.497
vn -0.645 0.567 0.512
vn -0.262 0.780 0.568
vn -0.461 0.688 0.560
vn 0.330 -0.598 0.730
vn 0.313 -0.674 0.669
vn 0.322 -0.738 0.593
vn 0.262 -0.259 0.930
vn 0.157 0.031 0.987
vn 0.355 -0.411 0.840
vn 0.550 0.461 0.697
vn 0.262 0.416 0.871
vn 0.713 0.465 0.524
vn -0.308 -0.951 0.014
vn -0.381 -0.913 -0.149
vn -0.265 -0.962 0.069
vn -0.489 -0.741 -0.460
vn -0.472 -0.850 0.234
vn -0.311 -0.850 0.424
vn -0.281 -0.830 0.482
vn -0.340 -0.861 0.377
vn -0.399 -0.839 0.369
vn -0.253 -0.860 0.444
vn -0.358 -0.874 0.328
vn -0.456 -0.868 -0.198
vn 0.369 0.224 -0.902
vn 0.370 -0.207 -0.906
vn 0.358 -0.107 -0.928
vn 0.258 -0.298 -0.919
vn -0.125 -0.537 -0.834
vn 0.380 -0.718 -0.583
vn 0.392 -0.425 -0.816
vn -0.010 0.836 0.548
vn -0.340 0.471 0.814
vn -0.071 0.738 0.671
vn -0.463 0.300 0.834
vn 0.754 0.197 -0.626
vn 0.841 0.376 -0.389
vn 0.656 0.067 -0.752
vn 0.810 0.506 -0.295
vn -0.006 0.735 0.678
vn -0.016 0.803 0.596
vn -0.030 0.666 0.745
vn 0.327 0.868 0.374
vn 0.021 0.507 0.861
vn 0.257 0.838 0.481
vn -0.707 -0.705 0.058
vn -0.834 -0.537 0.127
vn -0.626 -0.780 0.002
vn 0.553 -0.617 0.560
vn 0.879 0.159 0.449
vn -0.357 -0.714 -0.602
vn 0.040 -0.861 -0.507
vn -0.147 -0.727 -0.671
vn -0.013 -0.805 -0.593
vn 0.162 -0.913 -0.375
vn 0.116 -0.893 -0.434
vn 0.354 0.920 -0.170
vn 0.485 0.859 -0.165
vn 0.365 0.930 0.041
vn 0.468 0.883 0.046
f 1/1/1 2/2/2 3/3/3 
f 4/4/8 5/5/11 6/6/12 
f 7/7/15 8/8/20 9/9/23 
f 10/10/26 11/11/31 12/12/35 
f 13/13/36 14/14/41 15/15/45 
f 14/14/42 13/13/37 16/16/46 
f 17/17/53 18/18/56 19/19/61 
f 20/20/62 21/21/63 22/22/67 
f 23/23/73 24/24/76 21/21/64 
f 25/25/78 26/26/79 27/27/84 
f 28/28/87 22/22/68 21/21/65 
f 29/29/88 11/11/32 10/10/27 
f 30/30/93 31/31/94 32/32/100 
f 33/33/101 34/34/103 35/35/107 
f 24/24/77 36/36/108 37/37/113 
f 38/38/114 39/39/117 18/18/57 
f 32/32/100 31/31/94 4/4/9 
f 25/25/78 40/40/121 7/7/16 
f 41/41/125 3/3/3 42/42/126 
f 43/43/129 44/44/134 45/45/138 
f 42/42/126 43/43/130 46/46/143 
f 47/47/146 22/22/69 48/48/151 
f 49/49/154 50/50/155 12/12/35 
f 51/51/156 10/10/28 52/52/159 
f 47/47/147 48/48/152 53/53/160 
f 28/28/87 54/54/161 22/22/68 
f 45/45/139 44/44/135 55/55/163 
f 31/31/95 56/56/164 4/4/10 
f 57/57/168 58/58/172 59/59/176 
f 60/60/180 5/5/11 4/4/8 
f 61/61/186 62/62/190 63/63/195 
f 29/29/89 64/64/200 62/62/191 
f 64/64/201 63/63/196 62/62/192 
f 65/65/203 66/66/205 67/67/206 
f 41/41/125 8/68/21 68/69/210 
f 46/46/144 41/41/125 42/42/126 
f 36/36/109 69/70/211 33/33/102 
f 64/64/202 69/70/212 63/63/197 
f 51/51/157 70/71/217 10/10/26 
f 71/72/221 31/31/96 30/30/93 
f 48/48/152 54/54/161 26/26/80 
f 72/73/224 22/22/70 47/47/148 
f 20/20/62 22/22/71 72/73/225 
f 34/34/104 30/30/93 32/32/100 
f 19/19/61 73/74/229 17/17/54 
f 59/59/177 58/58/173 74/75/233 
f 5/5/11 75/76/237 6/6/13 
f 49/49/154 76/77/238 77/78/240 
f 50/50/155 49/49/154 78/79/243 
f 56/56/165 79/80/246 4/4/8 
f 79/80/246 60/60/180 4/4/8 
f 73/74/230 80/81/249 17/17/55 
f 37/37/113 6/6/14 75/76/237 
f 8/8/22 81/82/252 82/83/255 
f 41/41/125 81/84/253 8/68/21 
f 4/4/9 6/6/12 35/35/107 
f 37/37/113 36/36/108 6/6/14 
f 78/79/244 83/85/261 84/86/264 
f 82/83/256 53/53/160 8/8/20 
f 85/87/265 86/88/272 83/85/261 
f 83/85/262 86/88/272 84/86/264 
f 87/89/273 88/90/274 11/11/32 
f 40/40/122 57/57/168 59/59/176 
f 89/91/280 80/81/250 57/57/169 
f 39/39/118 14/14/43 16/16/47 
f 56/56/166 31/31/97 39/39/119 
f 23/23/74 45/45/140 88/90/275 
f 90/92/284 43/43/131 45/45/141 
f 40/40/123 59/59/178 7/7/17 
f 7/93/18 59/94/179 85/87/266 
f 71/72/222 14/14/41 31/31/98 
f 31/31/99 14/14/44 39/39/119 
f 43/43/132 90/92/285 72/73/226 
f 62/62/193 11/11/33 29/29/90 
f 61/61/187 11/11/34 62/62/194 
f 7/93/18 85/87/267 1/1/1 
f 1/1/1 85/87/268 83/85/263 
f 40/40/121 27/27/84 60/60/181 
f 60/60/182 27/27/85 91/95/288 
f 87/89/273 23/23/74 88/90/274 
f 34/34/105 33/33/102 29/29/91 
f 71/72/223 34/34/104 70/71/218 
f 92/96/291 54/54/161 28/28/87 
f 85/87/269 19/19/61 93/97/294 
f 74/75/234 58/58/174 19/19/61 
f 2/2/2 83/85/261 78/79/244 
f 53/53/160 26/26/81 8/8/20 
f 36/36/110 35/35/107 6/6/13 
f 35/35/107 36/36/111 33/33/101 
f 88/90/276 45/45/142 55/55/163 
f 18/18/56 93/97/295 19/19/61 
f 18/18/58 39/39/120 16/16/48 
f 60/60/183 89/91/281 40/40/123 
f 77/78/241 3/3/4 2/2/2 
f 18/18/59 16/16/49 93/97/294 
f 10/10/29 12/12/35 52/52/159 
f 69/70/213 36/36/112 24/24/76 
f 2/2/2 78/79/244 77/78/241 
f 78/79/245 49/49/154 77/78/242 
f 22/22/72 54/54/161 48/48/151 
f 8/68/21 7/93/18 68/69/210 
f 29/29/92 10/10/30 70/71/219 
f 85/87/268 74/98/235 19/19/61 
f 59/94/179 74/98/236 85/87/270 
f 15/15/45 52/52/159 13/13/38 
f 13/13/39 52/52/159 84/86/264 
f 26/26/82 54/54/162 92/96/292 
f 81/82/253 94/99/297 82/83/257 
f 46/46/144 81/84/254 41/41/125 
f 25/25/78 27/27/84 40/40/121 
f 80/81/249 38/38/115 17/17/55 
f 17/17/54 38/38/114 18/18/60 
f 72/73/227 47/47/149 82/83/258 
f 65/65/204 67/67/207 61/61/188 
f 87/89/273 11/11/34 61/61/189 
f 16/16/50 13/13/40 95/100/299 
f 13/13/39 84/86/264 95/100/299 
f 53/53/160 82/83/259 47/47/150 
f 93/97/296 86/88/272 85/87/271 
f 65/65/204 61/61/186 63/63/195 
f 66/66/205 65/65/203 63/63/198 
f 71/72/222 15/15/45 14/14/41 
f 51/51/156 71/72/221 70/71/220 
f 43/43/130 42/42/126 44/44/136 
f 44/44/137 42/42/127 96/101/300 
f 97/102/305 37/37/113 75/76/237 
f 33/33/102 64/64/200 29/29/89 
f 33/33/102 69/70/214 64/64/202 
f 55/55/163 76/77/239 88/90/277 
f 12/12/35 76/77/238 49/49/154 
f 58/58/174 73/74/231 19/19/61 
f 94/99/297 46/46/144 43/43/130 
f 94/99/297 81/84/253 46/46/145 
f 35/35/107 32/32/100 4/4/9 
f 35/35/107 34/34/103 32/32/100 
f 96/101/301 76/77/239 55/55/163 
f 55/55/163 44/44/137 96/101/302 
f 21/21/66 20/20/62 23/23/75 
f 23/23/74 90/92/286 45/45/141 
f 73/74/232 57/57/170 80/81/251 
f 57/57/171 73/74/232 58/58/175 
f 50/50/155 78/79/243 84/86/264 
f 20/20/62 72/73/226 90/92/287 
f 23/23/75 20/20/62 90/92/287 
f 60/60/184 91/95/288 5/5/11 
f 5/5/11 92/96/291 75/76/237 
f 56/56/167 39/39/117 38/38/115 
f 38/38/116 80/81/251 79/80/247 
f 15/15/45 51/51/156 52/52/159 
f 71/72/222 51/51/158 15/15/45 
f 76/77/238 12/12/35 88/90/278 
f 88/90/279 12/12/35 11/11/31 
f 37/37/113 28/28/87 21/21/65 
f 94/99/298 72/73/224 82/83/260 
f 28/28/87 37/37/113 97/102/306 
f 96/101/303 3/3/4 77/78/241 
f 42/42/128 3/3/5 96/101/304 
f 89/91/282 79/80/247 80/81/250 
f 89/91/283 60/60/185 79/80/248 
f 71/72/223 30/30/93 34/34/103 
f 52/52/159 12/12/35 50/50/155 
f 52/52/159 50/50/155 84/86/264 
f 91/95/289 92/96/291 5/5/11 
f 66/66/205 69/70/215 24/24/76 
f 66/66/205 24/24/76 67/67/208 
f 40/40/124 89/91/280 57/57/169 
f 76/77/238 96/101/304 77/78/240 
f 48/48/153 26/26/81 53/53/160 
f 61/61/187 67/67/209 87/89/273 
f 67/67/208 24/24/76 87/89/273 
f 86/88/272 93/97/296 16/16/51 
f 26/26/83 92/96/293 91/95/288 
f 27/27/86 26/26/79 91/95/290 
f 1/1/1 83/85/263 2/2/2 
f 92/96/291 97/102/307 75/76/237 
f 79/80/247 56/56/165 38/38/116 
f 95/100/299 84/86/264 86/88/272 
f 95/100/299 86/88/272 16/16/52 
f 3/3/6 68/69/210 1/1/1 
f 3/3/7 41/41/125 68/69/210 
f 26/26/81 9/9/24 8/8/20 
f 63/63/199 69/70/216 66/66/205 
f 9/9/24 25/25/78 7/7/17 
f 26/26/79 25/25/78 9/9/25 
f 68/69/210 7/93/19 1/1/1 
f 43/43/133 72/73/228 94/99/298 
f 24/24/77 37/37/113 21/21/65 
f 92/96/291 28/28/87 97/102/308 
f 87/89/273 24/24/76 23/23/73 
f 34/34/106 29/29/92 70/71/219 
