# Vectary OBJ Export units=mm
mtllib Meteor1.mtl 
o 000_
g Layer_1
usemtl Default material_0
o 001_
g Asteroids_Mesh
usemtl Default material_0
v 0.555 -0.576 -1.788
v 1.339 0.296 -2.259
v 1.424 1.555 -0.597
v 1.608 1.240 0.185
v 0.420 1.375 1.390
v -0.619 1.491 0.606
v -0.987 -0.689 2.374
v 0.395 -0.640 1.202
v -0.115 1.481 0.481
v -0.455 1.329 -0.032
v 2.624 1.066 -1.544
v 1.966 -0.235 0.595
v 1.685 -0.999 -0.270
v 1.003 -0.615 0.951
v 0.937 -1.047 0.295
v 1.401 1.378 -1.475
v 1.788 0.282 0.722
v 1.508 0.021 0.887
v 3.010 -0.124 -2.116
v 2.596 -0.353 -2.395
v 2.959 -0.258 -1.190
v 3.093 0.068 -1.218
v -0.369 0.322 -0.867
v 0.488 0.410 -1.280
v -1.019 -0.994 2.125
v 1.112 1.151 1.363
v 1.550 0.885 1.053
v 0.499 -1.127 -0.085
v 0.316 -0.968 -0.368
v -0.569 -1.212 0.035
v 1.787 1.029 -1.967
v 0.719 0.715 1.696
v -0.955 -1.119 0.939
v 3.153 0.220 -1.996
v 2.688 0.547 -2.292
v 2.545 0.201 -2.515
v 0.890 -1.142 -0.828
v 1.561 -1.009 -1.103
v 0.541 0.105 -1.723
v 0.761 1.501 0.196
v 1.143 1.417 0.684
v 0.711 0.720 -1.691
v 0.911 1.007 -1.724
v 1.701 -0.790 -2.146
v 2.142 -0.801 -1.895
v 2.755 0.663 -0.972
v 3.107 0.514 -1.282
v 1.310 -0.488 -2.267
v 2.020 -0.304 -2.557
v -0.057 0.767 -0.861
v 0.848 -0.839 -1.602
v 2.596 -0.468 -0.438
v 0.438 1.128 1.607
v -0.169 -0.341 -0.994
v 0.301 -0.299 -1.271
v 0.993 1.422 -1.225
v 2.400 0.554 -0.071
v 1.725 0.524 -2.334
v 0.676 1.582 -0.508
v 1.105 -0.925 -1.306
v 2.245 -0.675 -0.286
v 2.168 -0.703 -1.404
v -0.853 -0.281 2.359
v -0.495 -0.251 1.631
v -0.665 -0.743 -0.803
v -1.062 -0.873 -0.398
v 1.136 0.221 1.366
v -0.984 0.349 1.768
v -1.865 0.447 2.788
v -1.570 -0.509 2.729
v -1.653 -1.133 2.085
v -1.455 -1.209 1.618
v -1.060 0.602 1.702
v -0.896 1.479 0.454
v -1.310 0.348 2.600
v -1.585 0.586 2.489
v -1.488 -1.006 0.968
v -1.967 0.377 0.283
v -2.303 0.789 1.197
v -2.018 -1.075 1.761
v -1.757 -0.792 0.332
v -1.225 0.962 1.377
v -1.911 1.094 1.541
v -1.476 0.780 0.075
v -1.832 1.149 1.173
v -1.737 -0.846 2.555
v -2.385 0.044 0.734
v -2.723 -0.272 1.486
v -2.208 -0.499 0.624
v -1.457 -0.217 -0.414
v -2.699 -0.663 2.025
v -3.028 -0.025 2.527
v -2.828 0.117 1.602
v -3.020 0.278 2.429
v -2.826 -0.249 2.706
v -2.562 0.854 2.219
v -2.604 0.951 1.962
vt 0.839 0.624
vt 0.847 0.638
vt 0.863 0.614
vt 0.781 0.529
vt 0.823 0.547
vt 0.807 0.572
vt 0.889 0.504
vt 0.876 0.524
vt 0.843 0.508
vt 0.855 0.487
vt 0.763 0.740
vt 0.728 0.673
vt 0.776 0.734
vt 0.715 0.559
vt 0.727 0.523
vt 0.741 0.522
vt 0.881 0.545
vt 0.899 0.574
vt 0.876 0.575
vt 0.861 0.539
vt 0.822 0.481
vt 0.848 0.540
vt 0.719 0.605
vt 0.675 0.589
vt 0.715 0.647
vt 0.815 0.602
vt 0.782 0.591
vt 0.833 0.558
vt 0.927 0.485
vt 0.899 0.474
vt 0.888 0.451
vt 0.793 0.610
vt 0.765 0.617
vt 0.780 0.628
vt 0.825 0.508
vt 0.816 0.525
vt 0.765 0.480
vt 0.832 0.453
vt 0.798 0.472
vt 0.838 0.435
vt 0.762 0.490
vt 0.797 0.488
vt 0.788 0.498
vt 0.786 0.721
vt 0.768 0.697
vt 0.847 0.469
vt 0.775 0.647
vt 0.793 0.645
vt 0.738 0.609
vt 0.751 0.639
vt 0.731 0.624
vt 0.748 0.574
vt 0.665 0.653
vt 0.651 0.658
vt 0.674 0.711
vt 0.756 0.522
vt 0.758 0.540
vt 0.803 0.638
vt 0.892 0.488
vt 0.701 0.573
vt 0.923 0.552
vt 0.658 0.556
vt 0.641 0.608
vt 0.829 0.584
vt 0.906 0.529
vt 0.715 0.738
vt 0.957 0.527
vt 0.691 0.525
vt 0.682 0.638
vt 0.944 0.579
vt 0.983 0.589
vt 0.952 0.604
vt 0.805 0.694
vt 0.746 0.762
vt 0.720 0.770
vt 0.858 0.639
vt 0.838 0.679
vt 0.817 0.689
vt 0.865 0.681
vt 0.771 0.765
vt 0.793 0.757
vt 0.953 0.653
vt 0.939 0.679
vt 0.917 0.687
vt 0.927 0.621
vt 0.859 0.694
vt 0.773 0.778
vt 0.801 0.747
vt 0.816 0.723
vt 0.833 0.736
vt 0.883 0.694
vt 0.907 0.659
vt 0.817 0.800
vt 0.829 0.721
vt 0.919 0.727
vt 0.929 0.755
vt 0.892 0.640
vt 0.975 0.673
vt 0.869 0.772
vt 0.902 0.728
vt 0.873 0.757
vt 0.849 0.777
vt 0.871 0.721
vt 0.865 0.729
vn -0.659 0.104 -0.745
vn -0.292 -0.748 -0.597
vn -0.685 -0.727 0.053
vn -0.939 0.104 -0.327
vn -0.784 0.079 -0.616
vn -0.522 0.178 -0.834
vn -0.508 0.099 -0.856
vn -0.520 0.366 -0.772
vn -0.568 0.025 -0.822
vn -0.476 0.241 -0.846
vn -0.456 0.160 -0.876
vn 0.186 0.983 0.002
vn 0.115 0.992 -0.042
vn 0.226 0.973 0.044
vn 0.561 0.784 0.266
vn 0.040 0.973 0.227
vn 0.039 0.804 0.594
vn 0.040 0.919 0.393
vn -0.022 0.999 -0.042
vn -0.046 0.987 0.151
vn -0.077 0.936 0.343
vn 0.530 -0.451 0.718
vn 0.666 -0.338 0.665
vn 0.548 0.204 0.811
vn 0.423 -0.480 0.769
vn 0.572 -0.304 0.762
vn 0.403 -0.632 0.662
vn 0.544 0.514 0.663
vn 0.432 -0.447 0.783
vn 0.380 -0.797 0.469
vn -0.138 0.986 -0.093
vn -0.035 0.999 -0.021
vn -0.296 0.909 -0.292
vn -0.222 0.903 -0.369
vn -0.410 0.747 -0.524
vn -0.548 0.555 -0.626
vn -0.163 0.940 -0.301
vn -0.464 0.695 -0.549
vn 0.310 0.914 -0.260
vn 0.601 0.795 0.083
vn 0.599 0.742 0.300
vn 0.674 0.722 0.154
vn 0.607 0.790 -0.086
vn 0.224 0.886 -0.405
vn 0.382 0.835 -0.397
vn 0.464 -0.598 0.654
vn 0.690 -0.091 0.719
vn 0.764 -0.034 0.645
vn 0.575 -0.358 0.735
vn 0.390 -0.894 0.221
vn 0.410 -0.594 0.693
vn 0.405 -0.675 0.617
vn 0.445 -0.523 0.727
vn 0.377 -0.782 0.497
vn 0.445 -0.416 0.793
vn 0.229 -0.921 0.314
vn 0.197 -0.948 0.252
vn 0.076 -0.996 0.034
vn -0.015 0.896 -0.443
vn 0.695 -0.053 0.717
vn 0.468 -0.303 0.830
vn 0.470 -0.403 0.785
vn 0.482 -0.198 0.853
vn 0.609 -0.793 -0.038
vn 0.682 -0.717 0.144
vn 0.529 0.074 -0.845
vn 0.703 -0.640 0.311
vn 0.339 -0.804 -0.488
vn 0.487 -0.072 -0.871
vn 0.337 -0.685 -0.646
vn 0.420 -0.242 -0.875
vn 0.917 -0.360 0.169
vn 0.591 -0.805 -0.057
vn 0.653 -0.757 0.001
vn 0.920 -0.101 0.378
vn 0.811 -0.023 0.584
vn 0.951 -0.146 0.271
vn 0.958 -0.250 0.138
vn 0.885 -0.023 0.465
vn -0.473 0.275 -0.837
vn -0.602 0.349 -0.719
vn -0.575 0.288 -0.766
vn -0.757 -0.044 -0.652
vn -0.643 0.015 -0.766
vn -0.645 0.117 -0.755
vn -0.862 -0.108 -0.496
vn -0.715 0.104 -0.691
vn 0.318 -0.823 0.471
vn 0.467 0.764 0.446
vn 0.464 0.235 0.854
vn 0.399 0.386 0.832
vn 0.445 0.708 0.549
vn 0.663 0.676 0.321
vn 0.682 -0.042 0.730
vn -0.029 -0.997 -0.078
vn -0.277 -0.817 -0.505
vn -0.338 -0.786 -0.517
vn -0.405 -0.756 -0.513
vn -0.093 -0.943 -0.318
vn -0.180 -0.960 -0.213
vn -0.103 -0.890 -0.445
vn 0.042 -0.838 -0.544
vn -0.171 -0.943 -0.285
vn 0.004 0.739 -0.674
vn 0.392 0.010 0.920
vn 0.409 0.079 0.909
vn 0.454 -0.026 0.891
vn 0.524 0.003 0.852
vn 0.401 -0.059 0.914
vn 0.332 -0.008 0.943
vn 0.263 0.026 0.964
vn -0.053 -0.998 -0.030
vn 0.609 0.064 -0.791
vn 0.659 0.710 -0.250
vn 0.932 -0.306 0.194
vn 0.886 -0.460 0.061
vn 0.769 -0.613 -0.179
vn 0.736 0.396 -0.549
vn 0.584 0.716 -0.382
vn 0.096 0.657 -0.748
vn 0.619 0.611 -0.494
vn 0.379 0.699 -0.606
vn 0.529 -0.023 -0.849
vn 0.378 0.040 -0.925
vn -0.054 0.381 -0.923
vn 0.051 0.201 -0.978
vn 0.000 -0.995 -0.100
vn -0.537 -0.750 -0.386
vn -0.111 -0.976 -0.186
vn 0.266 -0.940 -0.213
vn 0.206 -0.937 -0.281
vn 0.298 -0.948 -0.109
vn -0.575 0.394 -0.717
vn -0.994 -0.010 -0.113
vn 0.121 0.986 0.116
vn 0.330 0.925 0.190
vn -0.705 0.019 -0.709
vn -0.704 0.113 -0.702
vn -0.681 0.227 -0.697
vn -0.691 -0.115 -0.714
vn -0.620 0.383 -0.684
vn -0.412 0.570 -0.710
vn 0.097 -0.909 -0.405
vn -0.045 -0.796 -0.604
vn -0.035 -0.726 -0.687
vn -0.030 -0.847 -0.531
vn 0.004 -0.888 -0.460
vn 0.368 -0.923 -0.110
vn 0.385 -0.923 -0.005
vn 0.307 -0.908 -0.285
vn 0.703 0.572 0.423
vn 0.807 0.105 0.582
vn 0.769 0.416 0.486
vn 0.770 0.476 0.424
vn 0.802 0.253 0.541
vn 0.668 0.743 0.055
vn 0.680 0.083 0.729
vn 0.723 0.687 -0.071
vn 0.997 -0.021 0.073
vn 0.725 0.629 -0.281
vn -0.462 0.026 -0.886
vn -0.388 -0.179 -0.904
vn -0.279 -0.678 -0.680
vn -0.323 -0.530 -0.784
vn -0.155 -0.074 -0.985
vn -0.048 -0.383 -0.922
vn 0.072 -0.501 -0.863
vn -0.107 -0.191 -0.976
vn -0.140 0.056 -0.989
vn -0.580 0.416 -0.700
vn -0.702 -0.332 -0.631
vn -0.250 -0.835 -0.491
vn -0.639 -0.751 0.169
vn 0.814 -0.084 0.575
vn 0.511 -0.860 0.008
vn 0.760 -0.128 0.637
vn 0.890 -0.037 0.455
vn 0.031 0.478 0.878
vn -0.450 0.074 -0.890
vn -0.184 -0.762 -0.621
vn 0.024 -0.799 -0.601
vn 0.175 -0.784 -0.596
vn -0.688 0.173 -0.705
vn -0.641 -0.765 -0.056
vn -0.412 -0.735 -0.538
vn -0.639 -0.751 0.169
vn -0.530 -0.770 -0.357
vn -0.198 0.916 -0.348
vn -0.274 0.889 -0.367
vn -0.402 0.806 -0.435
vn 0.807 -0.053 0.588
vn 0.821 0.166 0.547
vn 0.808 0.390 0.441
vn 0.767 -0.078 0.637
vn 0.851 0.227 0.474
vn -0.169 0.425 -0.889
vn 0.024 1.000 0.002
vn -0.610 0.672 -0.420
vn -0.043 -0.954 -0.296
vn 0.051 -0.988 -0.146
vn 0.065 -0.968 -0.241
vn -0.096 -0.918 -0.385
vn -0.579 -0.631 -0.516
vn -0.582 -0.763 0.282
vn -0.238 -0.845 -0.480
vn 0.544 -0.748 0.380
vn 0.500 -0.848 0.177
vn 0.736 -0.206 0.644
vn 0.665 -0.408 0.626
vn 0.480 -0.877 0.008
vn 0.553 -0.826 0.110
vn 0.331 -0.815 -0.476
vn 0.638 -0.735 0.232
vn 0.422 -0.899 -0.120
vn 0.636 -0.142 0.759
vn 0.789 0.500 0.357
vn 0.868 -0.271 0.415
vn 0.659 0.528 0.536
vn 0.293 -0.592 0.751
vn 0.265 -0.390 0.882
vn 0.234 -0.243 0.941
vn -0.506 -0.009 -0.863
vn -0.143 -0.804 -0.577
vn 0.130 -0.859 -0.496
vn -0.554 -0.140 -0.820
vn -0.541 -0.547 -0.639
vn -0.435 -0.773 -0.462
vn -0.527 -0.642 -0.557
vn -0.687 -0.300 -0.662
vn 0.527 -0.367 0.767
vn 0.572 -0.206 0.794
vn 0.437 -0.511 0.740
vn 0.819 0.452 0.353
vn 0.017 0.098 0.995
vn 0.150 -0.014 0.989
vn 0.222 0.787 0.576
vn -0.238 0.284 0.929
vn -0.011 0.112 0.994
vn 0.041 0.737 0.675
vn -0.193 0.618 0.762
vn 0.254 -0.199 0.947
vn 0.323 -0.149 0.935
vn 0.208 -0.237 0.949
vn -0.185 -0.919 0.348
vn -0.038 -0.998 -0.046
vn 0.296 -0.903 0.312
vn 0.077 -0.992 0.100
vn -0.184 -0.970 -0.158
vn 0.034 0.552 0.833
vn 0.232 0.704 0.671
vn 0.558 0.707 0.435
vn 0.637 0.686 0.352
vn -0.042 0.999 0.000
vn -0.525 0.703 -0.481
vn 0.395 0.019 0.919
vn 0.671 0.599 0.437
vn 0.760 0.547 0.352
vn 0.583 0.670 0.459
vn 0.311 0.832 0.459
vn -0.348 -0.911 -0.220
vn -0.723 0.352 -0.595
vn -0.684 0.582 -0.439
vn -0.397 -0.913 -0.094
vn -0.312 -0.949 0.034
vn -0.446 -0.816 -0.369
vn -0.588 -0.702 -0.401
vn -0.510 -0.804 -0.304
vn -0.451 -0.865 -0.221
vn -0.045 0.755 0.655
vn 0.002 0.808 0.589
vn 0.090 0.872 0.481
vn 0.225 0.891 0.394
vn 0.166 0.921 0.353
vn 0.138 0.948 0.288
vn -0.537 0.550 -0.640
vn -0.004 0.957 0.291
vn -0.571 0.720 -0.395
vn 0.169 -0.626 0.761
vn 0.057 -0.692 0.720
vn -0.125 -0.857 0.499
vn -0.850 0.118 -0.513
vn -0.901 -0.269 -0.342
vn -0.750 -0.389 -0.535
vn -0.756 -0.330 -0.565
vn -0.754 -0.427 -0.498
vn -0.654 0.041 -0.755
vn -0.751 -0.188 -0.633
vn -0.633 0.153 -0.758
vn -0.561 -0.822 0.100
vn -0.728 -0.650 -0.218
vn -0.698 -0.701 -0.144
vn -0.696 -0.652 -0.299
vn -0.621 -0.782 -0.049
vn -0.520 -0.830 0.204
vn -0.782 -0.580 -0.228
vn -0.679 -0.734 -0.009
vn -0.949 -0.292 -0.117
vn -0.434 0.290 0.853
vn -0.924 -0.373 -0.080
vn -0.958 -0.187 -0.217
vn -0.970 0.049 -0.237
vn -0.931 0.126 -0.343
vn -0.958 0.136 -0.251
vn -0.983 0.123 -0.139
vn -0.946 0.203 -0.251
vn -0.363 0.394 0.844
vn -0.930 0.256 -0.265
vn -0.273 0.194 0.942
vn -0.544 -0.758 0.361
vn -0.239 0.040 0.970
vn -0.069 -0.247 0.967
vn -0.021 0.843 0.538
vn -0.930 0.366 -0.036
vn -0.057 0.970 0.237
vn -0.756 0.503 -0.418
vn -0.855 0.441 -0.271
vn -0.958 0.270 -0.099
f 9/1/31 10/3/34 6/2/19 
f 16/5/59 3/6/12 11/4/39 
f 39/8/133 2/9/6 1/7/1 
f 2/9/7 48/10/161 1/7/1 
f 8/12/27 7/13/22 25/11/88 
f 21/15/72 22/16/75 52/14/174 
f 24/17/81 2/9/8 39/8/133 
f 23/18/80 50/19/170 24/17/82 
f 42/20/137 2/9/9 24/17/83 
f 48/10/162 2/9/7 49/21/165 
f 42/20/138 43/22/142 2/9/6 
f 12/23/46 14/25/51 13/24/50 
f 4/27/15 3/6/12 40/26/135 
f 3/6/13 16/5/59 56/28/188 
f 60/30/199 38/31/130 37/29/127 
f 40/26/135 41/32/136 4/27/15 
f 4/27/15 26/34/89 27/33/93 
f 43/22/142 58/35/196 2/9/10 
f 16/5/59 31/36/104 43/22/142 
f 45/38/148 20/39/68 19/37/64 
f 45/38/149 62/40/210 60/30/200 
f 62/40/211 45/38/149 19/37/65 
f 34/41/113 19/37/66 20/39/69 
f 36/42/123 35/43/118 34/41/113 
f 63/44/215 7/13/23 64/45/217 
f 64/45/218 7/13/24 8/12/28 
f 44/46/143 45/38/148 60/30/201 
f 62/40/212 38/31/131 60/30/202 
f 27/33/94 26/34/90 32/47/105 
f 26/34/91 53/48/178 32/47/106 
f 20/39/69 36/42/123 34/41/113 
f 17/49/60 27/33/94 32/47/107 
f 18/51/61 17/49/60 67/50/230 
f 67/50/231 17/49/60 32/47/108 
f 64/45/219 18/51/62 67/50/232 
f 32/47/109 64/45/220 67/50/230 
f 43/22/142 56/28/189 16/5/59 
f 10/3/35 56/28/189 43/22/142 
f 43/22/142 31/36/104 58/35/196 
f 12/23/47 17/49/60 18/51/63 
f 57/52/191 27/33/94 17/49/60 
f 12/23/47 57/52/192 17/49/60 
f 28/53/95 30/55/99 29/54/96 
f 4/27/15 11/4/40 3/6/14 
f 11/4/41 46/57/151 47/56/156 
f 5/58/16 9/1/32 6/2/20 
f 26/34/92 5/58/17 53/48/178 
f 41/32/136 40/26/135 5/58/16 
f 41/32/136 26/34/89 4/27/15 
f 26/34/89 41/32/136 5/58/18 
f 48/10/163 51/59/172 1/7/2 
f 51/59/172 48/10/163 44/46/144 
f 4/27/15 27/33/93 57/52/193 
f 11/4/42 4/27/15 46/57/151 
f 48/10/164 49/21/166 44/46/145 
f 20/39/68 45/38/150 44/46/146 
f 49/21/167 20/39/70 44/46/146 
f 51/59/172 44/46/147 60/30/199 
f 61/60/206 12/23/46 13/24/50 
f 23/18/80 24/17/84 54/61/179 
f 21/15/73 52/14/175 61/60/207 
f 57/52/191 12/23/48 61/60/208 
f 38/62/130 13/24/50 37/63/127 
f 21/15/73 61/60/207 13/24/50 
f 21/15/73 13/24/50 38/62/130 
f 40/26/135 3/6/12 59/64/197 
f 5/58/16 40/26/135 9/1/32 
f 9/1/32 40/26/135 59/64/197 
f 56/28/189 10/3/34 9/1/31 
f 3/6/12 56/28/188 59/64/197 
f 59/64/198 56/28/190 9/1/33 
f 47/56/157 46/57/152 22/16/76 
f 35/43/119 47/56/158 34/41/114 
f 34/41/115 47/56/159 22/16/77 
f 58/35/196 31/36/104 35/43/120 
f 11/4/43 47/56/160 35/43/121 
f 31/36/104 16/5/59 11/4/44 
f 31/36/104 11/4/45 35/43/122 
f 24/17/85 55/65/183 54/61/179 
f 51/59/173 55/65/184 1/7/3 
f 24/17/86 39/8/134 1/7/4 
f 24/17/87 1/7/5 55/65/183 
f 10/3/36 43/22/142 42/20/139 
f 23/18/80 10/3/36 50/19/170 
f 50/19/171 42/20/140 24/17/83 
f 42/20/141 50/19/170 10/3/36 
f 28/53/95 33/66/112 30/55/100 
f 49/21/168 36/42/124 20/39/71 
f 35/43/120 36/42/125 58/35/196 
f 2/9/11 58/35/196 49/21/169 
f 49/21/169 58/35/196 36/42/126 
f 54/61/180 55/65/185 29/67/97 
f 37/29/128 29/67/98 60/30/203 
f 55/65/186 51/59/173 60/30/204 
f 55/65/187 60/30/205 29/67/97 
f 34/41/116 22/16/78 21/15/74 
f 34/41/115 62/68/213 19/37/67 
f 62/68/211 21/15/73 38/62/132 
f 21/15/73 62/68/214 34/41/117 
f 13/24/50 14/25/52 15/69/56 
f 13/24/50 15/69/57 37/63/127 
f 28/53/95 29/54/97 37/63/129 
f 15/69/57 33/66/112 28/53/95 
f 15/69/57 28/53/95 37/63/127 
f 18/51/63 64/45/221 8/12/29 
f 12/23/49 18/51/61 14/25/53 
f 15/69/56 14/25/54 8/12/30 
f 8/12/29 14/25/55 18/51/61 
f 46/57/153 52/14/174 22/16/79 
f 57/52/194 61/60/209 52/14/176 
f 46/57/154 4/27/15 57/52/193 
f 46/57/155 57/52/195 52/14/177 
f 23/18/80 54/61/179 65/70/222 
f 30/71/99 66/72/227 65/70/223 
f 54/61/181 29/67/97 30/71/101 
f 54/61/182 30/71/102 65/70/224 
f 68/73/233 63/44/216 64/45/218 
f 15/69/58 72/74/245 33/66/112 
f 72/74/245 77/75/260 33/66/112 
f 10/3/37 74/76/253 6/2/19 
f 82/77/269 53/48/178 5/58/17 
f 82/77/269 73/78/249 53/48/178 
f 82/77/270 5/58/18 6/2/21 
f 15/69/56 8/12/27 72/74/246 
f 25/11/88 72/74/247 8/12/30 
f 74/76/253 85/79/276 6/2/20 
f 25/11/88 71/80/244 72/74/247 
f 7/13/25 86/81/278 25/11/88 
f 25/11/88 86/81/279 71/80/244 
f 32/47/110 68/73/234 64/45/221 
f 32/47/111 53/48/178 68/73/234 
f 89/83/283 66/72/228 81/82/266 
f 90/85/286 89/83/283 87/84/281 
f 66/72/229 89/83/284 65/70/225 
f 82/77/270 6/2/21 85/79/276 
f 83/86/272 73/78/250 82/77/270 
f 77/75/260 72/74/248 80/87/263 
f 70/88/241 7/13/26 63/44/215 
f 69/90/235 70/88/241 75/89/255 
f 63/44/215 75/89/255 70/88/242 
f 85/79/276 83/86/273 82/77/271 
f 79/91/262 78/92/261 87/84/281 
f 90/85/287 65/70/226 89/83/283 
f 80/87/264 72/74/245 71/80/244 
f 80/87/264 71/80/244 91/93/289 
f 90/85/286 87/84/281 78/92/261 
f 53/48/178 73/78/249 68/73/234 
f 68/73/233 75/89/256 63/44/216 
f 75/89/256 73/78/251 76/94/259 
f 73/78/252 75/89/257 68/73/233 
f 87/84/281 89/83/283 88/95/282 
f 88/95/282 89/83/283 91/96/290 
f 76/94/259 73/78/251 83/86/273 
f 7/13/25 70/88/241 86/81/278 
f 75/89/258 76/94/259 69/90/236 
f 81/82/267 66/72/227 30/71/103 
f 33/66/112 77/75/260 30/55/100 
f 84/97/275 74/76/254 10/3/38 
f 74/76/254 79/91/262 85/79/277 
f 84/97/275 78/92/261 79/91/262 
f 84/97/275 79/91/262 74/76/254 
f 89/83/285 81/82/267 91/96/291 
f 77/75/260 80/87/265 91/93/292 
f 30/71/103 77/98/260 81/82/268 
f 81/82/268 77/98/260 91/96/293 
f 90/85/288 78/92/261 84/97/275 
f 90/85/288 23/18/80 65/70/222 
f 23/18/80 84/97/275 10/3/36 
f 84/97/275 23/18/80 90/85/288 
f 93/100/301 88/95/282 92/99/297 
f 95/102/308 69/90/237 94/101/306 
f 87/84/281 88/95/282 93/100/302 
f 85/79/276 97/103/314 83/86/274 
f 97/103/315 87/84/281 93/100/302 
f 79/91/262 97/103/315 85/79/277 
f 97/103/316 79/91/262 87/84/281 
f 71/80/244 95/102/309 91/93/294 
f 91/96/295 92/99/297 88/95/282 
f 94/101/306 92/99/298 95/102/308 
f 95/102/309 92/99/299 91/93/296 
f 96/104/312 83/86/273 97/103/314 
f 71/80/244 86/81/280 95/102/309 
f 70/88/241 69/90/238 95/102/310 
f 86/81/278 70/88/243 95/102/311 
f 76/94/259 83/86/273 96/104/312 
f 69/90/239 76/94/259 96/104/312 
f 69/90/240 96/104/312 94/101/306 
f 94/101/307 93/100/303 92/99/300 
f 96/104/313 97/103/317 93/100/304 
f 96/104/313 93/100/305 94/101/307 
