# Vectary OBJ Export units=mm
mtllib Meteor1.mtl 
o 000_
g Layer_1
usemtl Default material_0
o 001_
g Asteroids_Mesh
usemtl Default material_0
v -0.149 -1.901 2.287
v -0.464 -1.498 2.835
v -0.239 0.958 3.145
v -1.716 0.410 2.562
v 0.569 -1.408 2.835
v 0.982 -1.933 2.280
v 0.017 -0.599 3.121
v -0.283 0.068 3.185
v 2.086 -0.985 2.262
v -1.767 -1.739 2.388
v -1.510 -2.614 0.871
v 1.245 0.640 2.817
v -1.417 1.385 2.568
v -1.307 -0.432 2.663
v 0.038 2.028 1.177
v -0.979 2.128 1.994
v 0.873 1.434 -2.974
v 1.481 1.331 -3.267
v 2.702 1.297 -0.294
v 2.889 0.229 1.612
v -0.969 -2.357 -0.900
v -1.021 -1.329 -2.703
v -1.240 -2.046 -2.071
v -1.839 -1.643 -2.136
v 0.534 -2.775 -0.064
v -0.801 -2.393 1.161
v 2.297 0.025 -0.011
v 2.117 -1.360 -0.911
v -0.289 0.205 -3.380
v -0.248 1.695 -3.134
v 1.684 -1.728 -1.484
v 0.411 -2.210 -1.173
v -1.466 1.506 -1.466
v -0.192 1.936 -2.524
v 1.671 -2.559 -0.265
v -0.442 1.975 -2.763
v 1.084 1.714 -2.990
v 0.526 2.212 -2.041
v 1.246 -2.393 1.480
v 2.671 -1.538 0.817
v -1.204 0.987 -3.120
v -1.067 -0.386 -2.920
v -2.521 0.570 1.091
v -2.792 1.027 -0.205
v 2.389 1.304 1.684
v 2.391 0.138 2.205
v 2.239 -0.764 0.039
v 0.675 -2.661 1.249
v 2.334 -2.050 0.409
v 2.531 0.588 -2.014
v 2.271 0.828 -2.618
v 0.103 2.259 -1.688
v 2.821 0.385 1.015
v -0.635 -1.230 -2.522
v -2.394 -0.455 -0.392
v -2.531 0.664 -1.875
v -2.878 0.320 0.211
v -0.534 2.079 -0.441
v 0.155 2.621 -0.240
v 1.764 -2.308 -1.069
v -2.308 1.626 0.272
v -2.095 1.541 -1.524
v 0.176 -2.064 -1.852
v 0.068 2.648 0.895
v 1.327 2.724 0.066
v 0.334 -1.609 -2.664
v 0.991 -1.533 -2.726
v -0.005 -1.471 -2.381
v -1.724 -0.369 -1.939
v -2.103 1.021 -2.606
v 2.636 -0.593 1.947
v -2.712 -0.821 0.857
v -2.110 0.840 1.953
v -1.474 -2.429 -1.086
v 1.903 -0.500 -2.309
v -0.119 2.654 -0.788
v -2.361 1.376 -2.120
v -2.670 -1.292 0.214
v -2.592 -1.703 0.807
v 1.578 1.267 -1.968
v -1.963 -0.902 -0.896
v -2.183 -2.097 -0.372
v -2.046 -2.132 -1.181
v -0.072 -2.742 -0.559
v 1.687 1.530 1.544
v 2.043 1.783 1.444
v -1.982 1.747 1.679
v -2.082 -2.390 0.689
v 2.345 -1.913 -0.362
v 1.379 2.767 -0.723
v 2.491 1.115 -1.414
v 2.344 2.070 -0.334
v -1.199 1.550 -0.748
v 1.687 1.666 -1.183
v 1.844 -1.069 -2.468
v 1.153 -0.614 -3.097
v -0.596 2.248 0.734
vt 0.236 0.553
vt 0.160 0.497
vt 0.251 0.525
vt 0.242 0.497
vt 0.326 0.512
vt 0.327 0.478
vt 0.286 0.569
vt 0.385 0.529
vt 0.199 0.578
vt 0.073 0.520
vt 0.133 0.052
vt 0.131 0.016
vt 0.066 0.064
vt 0.260 0.256
vt 0.221 0.300
vt 0.256 0.301
vt 0.168 0.139
vt 0.129 0.113
vt 0.087 0.195
vt 0.010 0.187
vt 0.097 0.131
vt 0.078 0.104
vt 0.084 0.295
vt 0.082 0.262
vt 0.120 0.228
vt 0.389 0.337
vt 0.350 0.284
vt 0.408 0.265
vt 0.221 0.436
vt 0.252 0.321
vt 0.261 0.313
vt 0.302 0.336
vt 0.059 0.219
vt 0.288 0.278
vt 0.426 0.394
vt 0.373 0.396
vt 0.343 0.439
vt 0.286 0.184
vt 0.280 0.208
vt 0.258 0.145
vt 0.265 0.376
vt 0.231 0.386
vt 0.239 0.372
vt 0.320 0.287
vt 0.059 0.404
vt 0.061 0.367
vt 0.113 0.339
vt 0.211 0.306
vt 0.202 0.294
vt 0.144 0.192
vt 0.132 0.178
vt 0.206 0.081
vt 0.205 0.140
vt 0.289 0.238
vt 0.337 0.241
vt 0.312 0.200
vt 0.315 0.169
vt 0.371 0.152
vt 0.337 0.091
vt 0.324 0.143
vt 0.148 0.438
vt 0.138 0.423
vt 0.114 0.426
vt 0.364 0.341
vt 0.455 0.352
vt 0.329 0.303
vt 0.238 0.346
vt 0.223 0.336
vt 0.106 0.209
vt 0.340 0.375
vt 0.263 0.206
vt 0.183 0.394
vt 0.184 0.372
vt 0.325 0.325
vt 0.153 0.208
vt 0.200 0.168
vt 0.174 0.319
vt 0.286 0.153
vt 0.254 0.084
vt 0.165 0.339
vt 0.366 0.227
vt 0.229 0.417
vt 0.316 0.426
vt 0.296 0.463
vt 0.272 0.444
vt 0.293 0.093
vt 0.229 0.013
vt 0.169 0.290
vt 0.131 0.316
vt 0.149 0.291
vt 0.297 0.360
vt 0.262 0.409
vt 0.049 0.459
vt 0.086 0.460
vt 0.014 0.252
vt 0.161 0.250
vt 0.170 0.233
vt 0.220 0.209
vt 0.198 0.215
vt 0.205 0.241
vt 0.216 0.187
vt 0.237 0.204
vt 0.142 0.368
vt 0.461 0.417
vn -0.019 -0.839 0.544
vn -0.137 -0.233 0.963
vn -0.010 -0.732 0.681
vn -0.088 -0.560 0.824
vn -0.023 -0.832 0.555
vn -0.197 0.074 0.978
vn -0.187 0.232 0.955
vn 0.212 0.776 0.594
vn -0.041 0.563 0.826
vn -0.615 -0.001 0.789
vn 0.283 -0.300 0.911
vn 0.132 -0.604 0.786
vn 0.186 -0.509 0.840
vn 0.232 -0.726 0.648
vn 0.002 -0.147 0.989
vn -0.149 -0.159 0.976
vn 0.143 -0.135 0.980
vn -0.146 -0.048 0.988
vn 0.437 -0.176 0.882
vn 0.543 -0.393 0.742
vn 0.526 -0.355 0.773
vn 0.581 -0.498 0.644
vn 0.568 -0.433 0.700
vn 0.467 -0.259 0.845
vn 0.506 -0.308 0.806
vn -0.316 -0.111 0.942
vn -0.232 -0.859 0.456
vn -0.412 -0.798 0.440
vn -0.589 -0.712 0.382
vn -0.865 0.208 0.456
vn 0.064 -0.990 0.124
vn -0.158 -0.924 0.348
vn -0.041 -0.971 0.234
vn 0.371 0.037 0.928
vn 0.282 0.718 0.637
vn 0.328 0.364 0.872
vn -0.527 0.422 0.738
vn -0.343 0.518 0.783
vn -0.613 0.347 0.710
vn -0.535 -0.172 0.827
vn -0.808 -0.072 0.585
vn -0.609 -0.110 0.786
vn 0.364 0.668 0.649
vn 0.302 0.727 0.616
vn 0.487 0.581 0.652
vn -0.421 0.871 0.252
vn -0.042 0.762 0.646
vn 0.556 0.548 0.625
vn 0.341 0.619 0.707
vn -0.472 0.875 0.107
vn -0.176 0.327 -0.929
vn -0.307 0.371 -0.876
vn -0.227 0.475 -0.850
vn -0.452 0.421 -0.786
vn 0.187 0.846 -0.499
vn 0.028 0.779 -0.627
vn -0.195 0.239 -0.951
vn 0.528 0.844 -0.093
vn 0.436 0.900 0.012
vn 0.687 0.711 -0.152
vn 0.439 -0.160 -0.884
vn -0.344 0.395 -0.852
vn 0.249 -0.062 -0.967
vn 0.988 0.080 -0.131
vn 0.961 -0.237 -0.144
vn 0.982 0.169 -0.086
vn 0.952 0.283 -0.112
vn 0.981 -0.097 -0.170
vn 0.994 0.113 -0.010
vn 0.860 0.301 0.412
vn 0.965 -0.208 -0.163
vn 0.920 0.237 0.312
vn 0.504 -0.777 -0.377
vn 0.285 -0.880 -0.380
vn -0.118 -0.992 -0.038
vn 0.186 -0.908 -0.375
vn 0.156 -0.885 -0.439
vn 0.102 -0.939 -0.328
vn 0.232 -0.924 -0.304
vn 0.577 -0.636 -0.513
vn -0.397 -0.346 -0.850
vn 0.548 -0.768 -0.331
vn -0.381 -0.734 -0.562
vn 0.257 -0.880 -0.399
vn -0.234 -0.821 -0.520
vn -0.436 -0.536 -0.723
vn -0.572 -0.382 -0.726
vn -0.946 0.128 -0.299
vn -0.885 0.043 -0.464
vn 0.096 -0.995 0.029
vn 0.063 -0.997 -0.054
vn 0.068 -0.981 0.183
vn -0.078 -0.981 0.176
vn -0.158 -0.964 0.216
vn 0.035 -0.991 0.131
vn 0.958 -0.229 -0.172
vn 0.947 -0.146 -0.288
vn 0.954 -0.072 -0.290
vn 0.935 -0.199 -0.295
vn -0.158 0.063 -0.985
vn -0.111 -0.185 -0.976
vn 0.122 -0.441 -0.889
vn -0.054 -0.371 -0.927
vn -0.088 0.297 -0.951
vn -0.036 -0.238 -0.970
vn 0.019 0.162 -0.987
vn -0.255 0.442 -0.860
vn -0.355 0.496 -0.792
vn 0.369 0.853 -0.370
vn 0.291 -0.791 -0.538
vn 0.750 -0.530 -0.396
vn 0.652 -0.653 -0.384
vn 0.546 -0.672 -0.500
vn 0.440 -0.759 -0.480
vn 0.085 -0.815 -0.573
vn -0.759 -0.639 0.125
vn -0.185 0.978 0.095
vn -0.235 0.972 0.026
vn -0.113 0.980 0.164
vn -0.245 0.966 -0.078
vn 0.178 0.886 -0.429
vn 0.025 0.958 -0.286
vn 0.515 -0.835 -0.191
vn 0.240 -0.874 0.423
vn -0.142 0.974 0.175
vn 0.472 0.805 -0.360
vn -0.395 0.818 -0.418
vn -0.234 0.971 -0.047
vn -0.528 0.356 -0.771
vn 0.679 0.735 -0.006
vn -0.216 0.841 -0.496
vn -0.096 0.894 -0.438
vn 0.661 0.719 -0.215
vn 0.553 0.706 -0.442
vn 0.486 0.658 -0.575
vn -0.480 0.681 -0.553
vn 0.166 0.846 -0.506
vn 0.480 -0.768 0.425
vn 0.711 -0.620 0.332
vn 0.866 -0.471 0.167
vn 0.796 -0.529 0.295
vn 0.968 0.032 -0.248
vn 0.974 -0.218 -0.068
vn 0.971 -0.110 -0.210
vn -0.333 0.185 -0.925
vn -0.280 0.360 -0.890
vn -0.581 -0.284 -0.763
vn -0.487 -0.176 -0.855
vn -0.608 -0.129 -0.783
vn -0.536 -0.199 -0.820
vn -0.664 -0.102 -0.741
vn -0.940 0.210 0.267
vn -0.942 0.335 0.032
vn -0.970 0.234 0.070
vn -0.901 0.433 0.032
vn -0.858 0.508 0.072
vn -0.739 0.668 0.080
vn 0.228 0.550 0.803
vn 0.766 0.444 0.466
vn 0.814 0.465 0.348
vn 0.463 0.550 0.695
vn 0.624 0.098 0.776
vn 0.948 0.036 -0.317
vn 0.153 -0.945 0.288
vn 0.095 -0.941 0.326
vn -0.055 -0.897 0.439
vn 0.553 -0.822 0.134
vn 0.409 -0.879 0.245
vn 0.606 -0.792 0.070
vn 0.910 0.339 -0.238
vn 0.978 0.135 -0.158
vn 0.957 -0.215 -0.193
vn 0.906 -0.387 -0.169
vn 0.804 0.529 -0.273
vn 0.931 -0.185 0.316
vn 0.697 -0.269 -0.665
vn -0.382 0.901 -0.206
vn -0.646 0.720 -0.254
vn -0.479 0.843 -0.244
vn 0.953 -0.165 -0.252
vn 0.159 -0.698 -0.698
vn -0.759 -0.639 0.125
vn -0.848 -0.285 -0.447
vn -0.909 -0.212 -0.358
vn -0.825 -0.361 -0.435
vn -0.943 -0.153 -0.297
vn -0.961 -0.042 -0.272
vn -0.877 -0.287 -0.386
vn -0.978 -0.160 -0.136
vn -0.980 0.066 0.186
vn -0.936 -0.164 -0.312
vn -0.995 -0.054 0.086
vn -0.997 -0.068 -0.047
vn -0.607 0.794 -0.027
vn -0.660 0.719 -0.216
vn -0.675 0.731 -0.101
vn -0.491 0.870 0.041
vn -0.426 0.904 0.029
vn -0.371 0.928 -0.040
vn 0.211 -0.859 -0.467
vn 0.596 -0.701 -0.392
vn 0.814 -0.408 -0.414
vn 0.254 -0.899 -0.356
vn 0.051 -0.792 -0.608
vn 0.079 -0.848 -0.525
vn -0.879 0.440 0.182
vn -0.744 0.664 0.069
vn -0.190 0.973 -0.129
vn -0.338 0.932 -0.131
vn -0.551 0.831 -0.070
vn -0.165 0.986 0.029
vn -0.270 0.963 0.003
vn -0.108 -0.838 -0.536
vn -0.561 -0.724 -0.402
vn 0.083 -0.851 -0.518
vn -0.733 -0.656 -0.179
vn 0.561 0.320 0.764
vn -0.293 0.955 -0.045
vn -0.104 0.950 0.295
vn 0.083 0.981 0.177
vn 0.130 0.875 0.466
vn 0.319 0.592 0.740
vn -0.117 0.869 0.481
vn 0.440 0.838 0.322
vn 0.075 0.996 0.057
vn 0.265 0.960 0.087
vn -0.045 -0.367 -0.929
vn -0.638 -0.612 -0.467
vn -0.597 0.149 -0.788
vn 0.056 -0.875 -0.480
vn 0.214 -0.398 -0.892
vn 0.339 -0.543 -0.768
vn 0.337 -0.811 -0.479
vn 0.291 -0.879 -0.378
vn -0.228 -0.610 -0.759
vn -0.303 -0.634 -0.712
vn -0.078 -0.575 -0.814
vn -0.597 0.149 -0.788
vn -0.813 -0.272 -0.515
vn -0.723 -0.423 -0.546
vn -0.759 -0.332 -0.561
vn -0.866 -0.154 -0.476
vn -0.900 -0.069 -0.429
vn -0.410 0.575 -0.708
vn -0.551 -0.478 -0.684
vn -0.690 -0.320 -0.649
vn -0.790 -0.223 -0.571
vn 0.807 -0.195 0.558
vn 0.972 -0.229 -0.047
vn 0.920 -0.269 0.286
vn 0.695 -0.222 0.684
vn -0.929 -0.067 0.364
vn -0.995 0.028 0.093
vn -0.880 -0.112 0.462
vn -0.869 0.192 0.456
vn -0.076 -0.969 -0.237
vn -0.158 -0.967 -0.198
vn -0.230 -0.953 -0.196
vn -0.322 -0.932 -0.169
vn -0.435 -0.882 -0.182
vn 0.966 -0.229 -0.116
vn 0.981 -0.195 -0.017
vn 0.946 -0.234 -0.224
vn -0.400 0.881 0.253
vn -0.136 0.977 -0.164
vn -0.253 0.966 -0.059
vn -0.844 0.382 -0.376
vn -0.407 0.757 -0.511
vn -0.933 0.104 -0.344
vn -0.452 0.891 -0.045
vn -0.462 0.799 -0.384
vn -0.975 -0.131 -0.177
vn -0.948 -0.128 -0.291
vn -0.991 -0.133 0.022
vn -0.891 -0.453 0.037
vn -0.900 -0.404 0.166
vn -0.920 -0.024 0.392
vn -0.925 -0.306 0.225
vn -0.900 -0.179 0.399
vn 0.534 0.826 -0.181
vn 0.616 0.753 -0.230
vn 0.503 0.857 -0.114
vn -0.952 -0.034 -0.305
vn -0.848 -0.449 -0.280
vn -0.914 -0.237 -0.329
vn -0.914 -0.139 -0.382
vn -0.764 -0.607 -0.216
vn -0.703 -0.701 -0.121
vn -0.434 -0.843 -0.318
vn -0.981 0.104 -0.165
vn -0.140 -0.989 -0.037
vn -0.101 -0.944 -0.314
vn 0.033 -0.838 -0.545
vn -0.004 0.722 0.692
vn -0.186 0.576 0.796
vn 0.663 0.713 0.227
vn -0.522 0.792 0.316
vn -0.767 0.420 0.486
vn -0.878 0.248 0.410
vn -0.396 0.898 0.190
vn -0.605 -0.791 0.085
vn -0.563 -0.826 0.010
vn -0.663 -0.737 0.130
vn 0.790 -0.566 -0.234
vn 0.744 -0.658 -0.116
vn 0.925 0.054 -0.377
vn 0.928 -0.235 -0.290
vn -0.068 0.985 -0.157
vn 0.154 0.985 -0.081
vn 0.651 0.534 -0.540
vn -0.001 0.386 -0.923
vn 0.414 0.902 -0.122
vn 0.657 0.667 -0.351
vn 0.821 0.487 -0.298
vn 0.590 0.749 -0.301
vn 0.288 0.932 -0.220
vn 0.767 0.550 -0.332
vn -0.001 0.386 -0.923
vn 0.792 0.602 0.102
vn 0.786 0.618 0.019
vn 0.732 0.647 -0.215
vn -0.298 0.947 -0.118
vn 0.574 0.642 -0.507
vn -0.001 0.386 -0.923
vn 0.959 -0.281 -0.039
vn 0.756 -0.479 -0.446
vn 0.624 -0.438 -0.648
vn 0.624 -0.595 -0.507
vn 0.990 -0.122 0.069
vn 0.540 -0.255 -0.802
vn 0.107 -0.365 -0.925
vn -0.597 0.149 -0.788
vn 0.215 -0.333 -0.918
vn 0.410 -0.234 -0.882
vn -0.443 0.888 -0.122
f 12/2/34 8/3/18 7/1/15 
f 12/2/34 3/4/6 8/3/18 
f 8/3/18 14/5/40 7/1/16 
f 4/6/10 8/3/18 3/4/7 
f 7/1/15 10/8/26 2/7/2 
f 5/9/11 9/10/19 7/1/17 
f 1/11/1 5/13/12 2/12/3 
f 2/7/4 5/9/13 7/1/15 
f 29/14/100 30/16/106 17/15/51 
f 25/17/90 49/19/167 48/18/164 
f 9/20/20 6/22/14 39/21/138 
f 9/20/21 5/13/13 6/22/14 
f 47/24/163 28/25/97 27/23/96 
f 56/27/184 55/28/183 57/26/189 
f 12/2/35 15/29/43 3/4/8 
f 36/31/125 33/32/117 34/30/120 
f 9/20/22 39/21/138 40/33/139 
f 48/18/164 49/19/167 39/21/138 
f 39/21/138 49/19/167 40/33/139 
f 29/14/100 41/34/145 30/16/107 
f 72/35/252 73/37/255 43/36/152 
f 22/39/80 21/40/73 23/38/82 
f 59/42/197 76/43/264 58/41/194 
f 41/34/146 70/44/244 30/16/108 
f 53/46/180 19/47/64 20/45/69 
f 37/48/129 18/49/57 17/15/52 
f 60/50/200 35/51/123 25/17/91 
f 84/53/291 25/17/90 26/52/93 
f 42/54/149 69/55/239 41/34/147 
f 24/56/86 22/39/81 23/38/83 
f 83/57/289 24/56/86 23/38/83 
f 78/58/272 82/60/284 79/59/275 
f 55/28/183 82/60/285 78/58/273 
f 85/61/294 45/63/158 86/62/295 
f 85/61/294 12/2/35 45/63/158 
f 44/64/153 57/26/190 43/36/152 
f 72/35/253 43/36/152 78/65/272 
f 57/26/191 55/28/183 78/65/273 
f 57/26/192 78/65/274 43/36/152 
f 30/16/109 36/31/126 34/30/121 
f 77/66/268 30/16/108 70/44/244 
f 41/34/148 29/14/101 42/54/149 
f 24/56/87 42/54/149 22/39/81 
f 52/67/177 76/43/265 38/68/131 
f 25/17/92 35/51/124 49/19/168 
f 35/51/123 60/50/201 89/69/304 
f 35/51/123 89/69/305 49/19/169 
f 49/19/169 89/69/304 40/33/140 
f 47/24/163 89/69/306 28/25/98 
f 41/34/147 69/55/240 70/44/245 
f 56/27/185 70/44/246 69/55/241 
f 44/64/154 56/27/186 57/26/193 
f 56/27/184 77/66/269 70/44/247 
f 61/70/206 44/64/155 43/36/152 
f 22/39/80 54/71/181 21/40/74 
f 22/39/81 42/54/150 29/14/101 
f 22/39/80 29/14/102 54/71/181 
f 59/42/198 65/72/219 76/43/266 
f 76/43/265 90/73/308 38/68/132 
f 90/73/309 76/43/265 65/72/220 
f 62/74/210 44/64/156 61/70/207 
f 44/64/153 77/66/269 56/27/187 
f 60/50/202 28/25/97 89/69/307 
f 84/53/292 60/50/203 25/17/91 
f 31/75/110 60/50/204 32/76/115 
f 26/52/94 21/40/75 84/53/291 
f 32/76/115 60/50/205 84/53/293 
f 54/71/181 32/76/115 21/40/76 
f 21/40/77 32/76/115 84/53/293 
f 58/41/195 76/43/267 52/67/178 
f 80/77/280 37/48/130 38/68/133 
f 74/78/256 23/38/84 21/40/74 
f 74/78/257 21/40/78 11/79/31 
f 11/79/32 1/11/1 2/12/3 
f 21/40/79 26/52/95 11/79/31 
f 94/80/323 80/77/281 38/68/134 
f 81/81/283 83/57/290 82/60/286 
f 74/78/258 83/57/289 23/38/85 
f 15/29/44 12/2/35 85/61/294 
f 85/61/294 65/72/221 15/29/44 
f 65/72/222 64/82/217 15/29/43 
f 13/84/37 16/85/46 87/83/297 
f 13/84/38 3/4/9 16/85/47 
f 82/60/287 88/86/301 79/59/275 
f 83/57/289 74/78/259 82/60/288 
f 82/60/288 74/78/260 88/86/301 
f 10/87/27 11/79/33 2/12/5 
f 74/78/258 11/79/33 88/86/302 
f 88/86/301 11/79/32 10/87/28 
f 91/89/314 50/90/170 51/88/174 
f 79/59/276 88/86/303 10/87/29 
f 7/1/16 14/5/40 10/8/26 
f 61/70/208 93/91/322 62/74/211 
f 97/92/335 58/41/196 93/91/322 
f 20/45/70 46/94/162 71/93/248 
f 53/46/180 20/45/71 71/93/249 
f 9/20/23 40/33/141 71/95/248 
f 33/32/118 52/67/179 34/30/120 
f 93/91/322 58/41/196 52/67/179 
f 62/74/211 93/91/322 33/32/117 
f 33/32/117 93/91/322 52/67/177 
f 60/50/202 31/75/111 28/25/97 
f 28/25/97 95/97/325 75/96/261 
f 66/98/227 96/100/331 67/99/231 
f 54/71/181 68/102/235 63/101/213 
f 68/102/236 66/98/228 63/101/214 
f 73/37/255 61/70/206 43/36/152 
f 87/83/298 73/37/255 13/84/39 
f 13/84/37 4/6/10 3/4/7 
f 4/6/10 13/84/39 73/37/255 
f 54/71/181 29/14/103 68/102/237 
f 66/98/229 68/102/238 96/100/332 
f 31/75/112 95/97/326 28/25/99 
f 95/97/327 67/99/232 96/100/333 
f 67/99/233 95/97/328 31/75/113 
f 19/47/65 53/46/180 27/23/96 
f 19/47/66 50/90/171 91/89/314 
f 89/69/306 47/24/163 40/33/142 
f 71/95/250 40/33/143 53/46/180 
f 27/23/96 53/46/180 47/24/163 
f 47/24/163 53/46/180 40/33/144 
f 30/16/108 77/66/268 36/31/127 
f 36/31/125 62/74/211 33/32/119 
f 77/66/270 44/64/157 62/74/212 
f 77/66/271 62/74/212 36/31/128 
f 92/103/319 20/45/72 19/47/67 
f 45/63/159 46/94/162 20/45/70 
f 92/103/319 45/63/160 20/45/72 
f 85/61/294 86/62/295 65/72/223 
f 92/103/319 86/62/296 45/63/159 
f 86/62/296 92/103/319 65/72/224 
f 65/72/225 59/42/199 64/82/218 
f 90/73/310 94/80/323 38/68/135 
f 94/80/323 91/89/315 80/77/280 
f 80/77/280 18/49/58 37/48/130 
f 91/89/316 18/49/59 80/77/282 
f 91/89/317 51/88/174 18/49/60 
f 51/88/175 75/96/262 95/97/329 
f 51/88/176 95/97/330 18/49/61 
f 1/11/1 6/22/14 5/13/12 
f 48/18/165 39/21/138 6/22/14 
f 15/29/45 64/82/217 16/85/48 
f 16/85/49 3/4/8 15/29/43 
f 66/98/230 67/99/234 63/101/215 
f 54/71/182 63/101/216 32/76/116 
f 67/99/234 31/75/114 32/76/115 
f 67/99/234 32/76/115 63/101/215 
f 29/14/104 17/15/53 18/49/62 
f 96/100/331 68/102/235 29/14/103 
f 18/49/61 95/97/330 96/100/334 
f 18/49/63 96/100/333 29/14/105 
f 50/90/172 19/47/68 27/23/96 
f 50/90/173 75/96/263 51/88/176 
f 28/25/97 75/96/261 27/23/96 
f 27/23/96 75/96/261 50/90/173 
f 81/81/283 24/56/88 83/57/290 
f 69/55/242 42/54/151 24/56/89 
f 73/37/255 87/83/299 61/70/206 
f 97/92/335 93/91/322 61/70/209 
f 97/92/335 61/70/209 87/83/300 
f 4/6/10 73/37/255 72/35/254 
f 8/3/18 4/6/10 14/5/40 
f 90/73/311 91/89/318 94/80/324 
f 91/89/317 92/103/320 19/47/67 
f 65/72/226 92/103/320 90/73/312 
f 90/73/313 92/103/321 91/89/317 
f 79/104/277 10/8/30 14/5/41 
f 78/65/272 79/104/278 72/35/252 
f 72/35/254 14/5/42 4/6/10 
f 14/5/42 72/35/254 79/104/279 
f 12/2/36 46/94/162 45/63/161 
f 46/94/162 9/10/21 71/93/251 
f 12/2/34 7/1/17 9/10/24 
f 12/2/34 9/10/25 46/94/162 
f 37/48/129 17/15/54 38/68/136 
f 38/68/132 34/30/122 52/67/177 
f 17/15/55 30/16/109 34/30/121 
f 17/15/56 34/30/121 38/68/137 
f 56/27/188 69/55/240 55/28/183 
f 81/81/283 82/60/286 55/28/183 
f 81/81/283 69/55/243 24/56/88 
f 69/55/239 81/81/283 55/28/183 
f 64/82/218 59/42/198 16/85/50 
f 16/85/50 97/92/335 87/83/300 
f 58/41/196 97/92/335 59/42/198 
f 59/42/198 97/92/335 16/85/50 
f 1/11/1 48/18/165 6/22/14 
f 26/52/93 25/17/90 48/18/165 
f 11/79/33 26/52/93 1/11/1 
f 1/11/1 26/52/94 48/18/166 
