# Vectary OBJ Export units=mm
mtllib Spaceship.mtl
o 000_
g Layer_1
usemtl Default material_0
v -100.000 0.000 0.000
v -60.000 -100.000 0.000
v 100.000 -100.000 0.000
v 100.000 60.000 0.000
v 60.000 100.000 0.000
v 0.000 100.000 0.000
v 0.000 0.000 0.000
v -100.000 -60.000 0.000
v 100.000 -100.000 20.000
v 100.000 60.000 20.000
v 60.000 100.000 20.000
v 0.000 100.000 20.000
v 0.000 0.000 20.000
v -100.000 0.000 20.000
v -100.000 -60.000 20.000
v -60.000 -100.000 20.000
vn 0.000 0.000 -1.000
vn 0.000 1.000 0.000
vn -1.000 0.000 0.000
vn 0.000 0.000 -1.000
vn -0.707 -0.707 0.000
vn 0.000 -1.000 0.000
vn 0.000 0.000 -1.000
vn 1.000 0.000 0.000
vn 0.000 -1.000 0.000
vn 0.000 0.000 -1.000
vn 1.000 0.000 0.000
vn 0.707 0.707 0.000
vn 0.000 0.000 -1.000
vn 0.707 0.707 0.000
vn 0.000 1.000 0.000
vn 0.000 0.000 -1.000
vn 0.000 1.000 0.000
vn -1.000 0.000 0.000
vn 0.000 0.000 -1.000
vn -1.000 0.000 0.000
vn 0.000 1.000 0.000
vn 0.000 0.000 -1.000
vn -1.000 0.000 0.000
vn -0.707 -0.707 0.000
vn 0.000 0.000 1.000
vn 1.000 0.000 0.000
vn 0.000 -1.000 0.000
vn 0.000 0.000 1.000
vn 1.000 0.000 0.000
vn 0.707 0.707 0.000
vn 0.000 0.000 1.000
vn 0.707 0.707 0.000
vn 0.000 1.000 0.000
vn 0.000 0.000 1.000
vn 0.000 1.000 0.000
vn -1.000 0.000 0.000
vn 0.000 0.000 1.000
vn -1.000 0.000 0.000
vn 0.000 1.000 0.000
vn 0.000 0.000 1.000
vn 0.000 1.000 0.000
vn -1.000 0.000 0.000
vn 0.000 0.000 1.000
vn -1.000 0.000 0.000
vn -0.707 -0.707 0.000
vn 0.000 0.000 1.000
vn -0.707 -0.707 0.000
vn 0.000 -1.000 0.000
f 2//4 8//22 1//1 7//19 6//16 5//13 4//10 3//7
f 9//25 10//28 11//31 12//34 13//37 14//40 15//43 16//46
f 3//8 4//11 10//29 9//26
f 4//12 5//14 11//32 10//30
f 5//15 6//17 12//35 11//33
f 6//18 7//20 13//38 12//36
f 7//21 1//2 14//41 13//39
f 1//3 8//23 15//44 14//42
f 8//24 2//5 16//47 15//45
f 2//6 3//9 9//27 16//48
