# Vectary OBJ Export units=mm
mtllib Spaceship.mtl 
o 000_
g Layer_1
usemtl Default material_0
o 001_
g Lo_poly_Spaceship_01_by_Liz_Reddington
usemtl Default material_0
v 58.232 277.895 18.085
v 114.330 277.895 7.556
v 124.861 306.243 12.782
v 47.701 306.243 27.264
v 64.576 293.040 5.921
v 106.633 293.040 0.631
v 106.633 293.040 -13.353
v 64.576 293.040 -18.643
v 47.701 306.243 -39.986
v 124.861 306.243 -25.504
v 114.330 277.895 -20.278
v 58.232 277.895 -30.808
v 114.479 306.243 5.750
v 58.192 306.243 14.912
v 114.479 306.243 -18.472
v 58.192 306.243 -27.634
v 50.849 63.235 12.349
v 85.404 60.833 5.244
v 96.247 101.329 31.984
v 71.821 103.027 37.007
v 117.301 277.617 51.496
v 92.875 279.314 56.518
v 106.084 255.825 16.616
v 71.529 258.227 23.721
v -23.332 5.867 14.501
v 23.338 5.867 14.501
v 16.462 78.700 45.559
v -16.455 78.700 45.559
v 21.744 149.325 45.559
v -21.738 149.325 45.559
v 35.970 189.453 14.501
v -35.963 189.453 14.501
v 77.367 132.402 34.151
v 92.335 132.402 34.151
v 148.363 266.755 121.602
v 139.888 267.243 121.602
v 151.369 300.884 121.602
v 142.894 301.373 121.602
v 112.804 265.943 49.614
v 90.481 265.943 49.614
v -36.952 -346.256 -15.069
v -24.550 -346.256 -15.069
v -24.550 -346.256 -2.667
v -36.952 -346.256 -2.667
v -24.550 -185.844 -2.667
v -36.952 -185.844 -2.667
v -36.952 -185.844 -15.069
v -24.550 -185.844 -15.069
v 27.467 -436.469 -12.370
v 34.470 -436.469 -12.370
v 34.470 -436.469 -5.367
v 27.467 -436.469 -5.367
v 34.470 -345.897 -5.367
v 27.467 -345.897 -5.367
v 27.467 -345.897 -12.370
v 34.470 -345.897 -12.370
v 24.768 -346.256 -15.069
v 37.170 -346.256 -15.069
v 37.170 -346.256 -2.667
v 24.768 -346.256 -2.667
v 37.170 -185.844 -2.667
v 24.768 -185.844 -2.667
v 24.768 -185.844 -15.069
v 37.170 -185.844 -15.069
v 99.082 -22.443 -11.968
v 172.138 59.610 -10.893
v 172.138 59.610 -1.829
v 99.082 -22.443 -0.754
v 228.559 269.703 0.276
v 173.603 260.979 2.402
v 228.559 269.703 -12.998
v 173.603 260.979 -15.124
v 318.251 223.716 -8.744
v 338.471 287.151 -8.744
v 338.471 287.151 -3.978
v 318.251 223.716 -3.978
v 283.515 278.427 -1.851
v 283.515 278.427 -10.871
v 245.195 141.663 -9.818
v 245.195 141.663 -2.904
v -26.190 -307.504 -10.399
v -8.728 -307.504 -12.554
v -8.728 -307.504 -0.168
v -26.190 -307.504 -2.323
v -59.634 279.140 31.863
v -178.909 279.140 6.198
v -59.634 279.140 -44.585
v -178.909 279.140 -18.920
v 26.197 -307.504 -10.399
v 178.915 279.140 -18.920
v 178.915 279.140 6.198
v 26.197 -307.504 -2.323
v 59.641 279.140 31.863
v 59.641 279.140 -44.585
v 8.735 -307.504 -12.554
v 8.735 -307.504 -0.168
v -50.842 63.235 -25.071
v -85.397 60.833 -17.966
v -106.078 255.825 -29.338
v -71.522 258.227 -36.443
v 50.849 63.235 -25.071
v 85.404 60.833 -17.966
v 71.529 258.227 -36.443
v 106.084 255.825 -29.338
v -58.226 277.895 18.085
v -47.694 306.243 27.264
v -124.855 306.243 12.782
v -114.323 277.895 7.556
v -64.569 293.040 5.921
v -64.569 293.040 -18.643
v -106.626 293.040 -13.353
v -106.626 293.040 0.631
v -47.694 306.243 -39.986
v -58.226 277.895 -30.808
v -114.323 277.895 -20.278
v -124.855 306.243 -25.504
v -58.185 306.243 14.912
v -114.472 306.243 5.750
v -114.472 306.243 -18.472
v -58.185 306.243 -27.634
v -99.075 -22.443 -11.968
v -99.075 -22.443 -0.754
v -172.132 59.610 -1.829
v -172.132 59.610 -10.893
v -173.596 260.979 2.402
v -228.552 269.703 0.276
v -173.596 260.979 -15.124
v -228.552 269.703 -12.998
v -318.244 223.716 -8.744
v -318.244 223.716 -3.978
v -338.464 287.151 -3.978
v -338.464 287.151 -8.744
v -283.508 278.427 -1.851
v -283.508 278.427 -10.871
v -245.188 141.663 -9.818
v -245.188 141.663 -2.904
v -77.360 132.402 34.151
v -139.881 267.243 121.602
v -148.357 266.755 121.602
v -92.329 132.402 34.151
v -142.887 301.373 121.602
v -151.363 300.884 121.602
v -90.475 265.943 49.614
v -112.797 265.943 49.614
v -50.842 63.235 12.349
v -71.814 103.027 37.007
v -96.241 101.329 31.984
v -85.397 60.833 5.244
v -92.868 279.314 56.518
v -117.294 277.617 51.496
v -71.522 258.227 23.721
v -106.078 255.825 16.616
v -34.252 -436.469 -12.370
v -27.249 -436.469 -12.370
v -27.249 -436.469 -5.367
v -34.252 -436.469 -5.367
v -27.249 -345.897 -5.367
v -34.252 -345.897 -5.367
v -34.252 -345.897 -12.370
v -27.249 -345.897 -12.370
vt 0.375 0.250
vt 0.625 0.250
vt 0.625 0.500
vt 0.375 0.500
vt 0.375 0.500
vt 0.625 0.500
vt 0.625 0.750
vt 0.375 0.750
vt 0.375 0.750
vt 0.625 0.750
vt 0.625 1.000
vt 0.375 1.000
vt 0.625 0.000
vt 0.875 0.000
vt 0.875 0.250
vt 0.125 0.000
vt 0.375 0.000
vt 0.125 0.250
vt 0.625 0.500
vt 0.375 0.500
vt 0.625 0.750
vt 0.375 0.750
vt 0.375 0.000
vt 0.625 0.000
vt 0.625 0.250
vt 0.375 0.250
vt 0.625 0.500
vt 0.375 0.500
vt 0.625 0.750
vt 0.375 0.750
vt 0.875 0.000
vt 0.875 0.250
vt 0.125 0.000
vt 0.125 0.250
vt 0.375 0.000
vt 0.625 0.000
vt 0.625 0.250
vt 0.375 0.250
vt 0.625 0.500
vt 0.375 0.500
vt 0.625 0.750
vt 0.375 0.750
vt 0.875 0.000
vt 0.875 0.250
vt 0.125 0.000
vt 0.125 0.250
vt 0.375 0.000
vt 0.625 0.000
vt 0.625 0.250
vt 0.375 0.250
vt 0.625 0.500
vt 0.375 0.500
vt 0.625 0.750
vt 0.375 0.750
vt 0.625 1.000
vt 0.375 1.000
vt 0.875 0.000
vt 0.875 0.250
vt 0.125 0.000
vt 0.125 0.250
vt 0.375 0.000
vt 0.625 0.000
vt 0.625 0.250
vt 0.375 0.250
vt 0.625 0.500
vt 0.375 0.500
vt 0.375 0.750
vt 0.625 0.750
vt 0.625 1.000
vt 0.375 1.000
vt 0.875 0.000
vt 0.875 0.250
vt 0.125 0.000
vt 0.125 0.250
vt 0.375 0.000
vt 0.625 0.000
vt 0.625 0.250
vt 0.375 0.250
vt 0.625 0.500
vt 0.375 0.500
vt 0.375 0.750
vt 0.625 0.750
vt 0.625 1.000
vt 0.375 1.000
vt 0.875 0.000
vt 0.875 0.250
vt 0.125 0.000
vt 0.125 0.250
vt 0.375 0.000
vt 0.625 0.000
vt 0.625 0.250
vt 0.375 0.250
vt 0.625 0.500
vt 0.375 0.500
vt 0.375 0.750
vt 0.625 0.750
vt 0.625 1.000
vt 0.375 1.000
vt 0.875 0.000
vt 0.875 0.250
vt 0.125 0.000
vt 0.125 0.250
vt 0.375 0.000
vt 0.458 0.000
vt 0.458 0.250
vt 0.375 0.250
vt 0.458 0.500
vt 0.375 0.500
vt 0.458 0.750
vt 0.375 0.750
vt 0.458 1.000
vt 0.375 1.000
vt 0.625 0.000
vt 0.875 0.000
vt 0.875 0.250
vt 0.625 0.250
vt 0.542 0.500
vt 0.625 0.500
vt 0.625 0.750
vt 0.542 0.750
vt 0.542 1.000
vt 0.625 1.000
vt 0.542 0.250
vt 0.542 0.000
vt 0.375 0.000
vt 0.458 0.000
vt 0.458 0.250
vt 0.375 0.250
vt 0.458 0.500
vt 0.375 0.500
vt 0.458 0.750
vt 0.375 0.750
vt 0.458 1.000
vt 0.375 1.000
vt 0.625 0.000
vt 0.875 0.000
vt 0.875 0.250
vt 0.625 0.250
vt 0.125 0.000
vt 0.125 0.250
vt 0.542 0.500
vt 0.625 0.500
vt 0.625 0.750
vt 0.542 0.750
vt 0.542 1.000
vt 0.625 1.000
vt 0.542 0.250
vt 0.542 0.000
vt 0.375 0.250
vt 0.375 0.500
vt 0.625 0.500
vt 0.625 0.250
vt 0.375 0.500
vt 0.375 0.750
vt 0.625 0.750
vt 0.625 0.500
vt 0.375 0.750
vt 0.375 1.000
vt 0.625 1.000
vt 0.625 0.750
vt 0.625 0.000
vt 0.875 0.250
vt 0.875 0.000
vt 0.125 0.000
vt 0.125 0.250
vt 0.375 0.000
vt 0.375 0.500
vt 0.625 0.500
vt 0.625 0.750
vt 0.375 0.750
vt 0.375 0.000
vt 0.375 0.250
vt 0.458 0.250
vt 0.458 0.000
vt 0.375 0.500
vt 0.458 0.500
vt 0.375 0.750
vt 0.458 0.750
vt 0.375 1.000
vt 0.458 1.000
vt 0.625 0.000
vt 0.625 0.250
vt 0.875 0.250
vt 0.875 0.000
vt 0.542 0.500
vt 0.542 0.750
vt 0.625 0.750
vt 0.625 0.500
vt 0.542 1.000
vt 0.625 1.000
vt 0.542 0.250
vt 0.542 0.000
vt 0.375 0.000
vt 0.375 0.250
vt 0.625 0.250
vt 0.625 0.000
vt 0.375 0.500
vt 0.625 0.500
vt 0.375 0.750
vt 0.625 0.750
vt 0.375 1.000
vt 0.625 1.000
vt 0.875 0.250
vt 0.875 0.000
vt 0.125 0.000
vt 0.125 0.250
vt 0.375 0.000
vt 0.375 0.250
vt 0.625 0.250
vt 0.625 0.000
vt 0.375 0.500
vt 0.625 0.500
vt 0.375 0.750
vt 0.625 0.750
vt 0.875 0.250
vt 0.875 0.000
vt 0.125 0.000
vt 0.125 0.250
vt 0.375 0.000
vt 0.625 0.000
vt 0.625 0.250
vt 0.375 0.250
vt 0.625 0.500
vt 0.375 0.500
vt 0.375 0.750
vt 0.625 0.750
vt 0.625 1.000
vt 0.375 1.000
vt 0.875 0.000
vt 0.875 0.250
vt 0.125 0.000
vt 0.125 0.250
vn 0.179 -0.242 0.954
vn -0.937 -0.348 0.000
vn 0.179 -0.242 0.954
vn 0.937 -0.348 0.000
vn 0.179 -0.242 0.954
vn 0.937 -0.348 0.000
vn 0.000 1.000 -0.000
vn 0.179 -0.242 0.954
vn -0.937 -0.348 0.000
vn 0.000 1.000 -0.000
vn 0.000 1.000 -0.000
vn -0.128 0.473 -0.872
vn 0.900 0.435 -0.000
vn 0.000 1.000 -0.000
vn -0.128 0.473 -0.872
vn -0.860 0.511 -0.000
vn 0.000 1.000 -0.000
vn -0.860 0.511 -0.000
vn -0.128 0.473 0.872
vn 0.000 1.000 -0.000
vn -0.128 0.473 0.872
vn 0.900 0.435 -0.000
vn 0.179 -0.242 -0.954
vn -0.937 -0.348 0.000
vn 0.000 1.000 -0.000
vn 0.179 -0.242 -0.954
vn 0.937 -0.348 0.000
vn 0.000 1.000 -0.000
vn 0.179 -0.242 -0.954
vn 0.937 -0.348 0.000
vn 0.179 -0.242 -0.954
vn -0.937 -0.348 0.000
vn 0.000 1.000 -0.000
vn -0.128 0.473 -0.872
vn -0.860 0.511 -0.000
vn 0.000 1.000 -0.000
vn -0.128 0.473 -0.872
vn 0.900 0.435 -0.000
vn 0.000 1.000 -0.000
vn -0.860 0.511 -0.000
vn -0.128 0.473 0.872
vn 0.000 1.000 -0.000
vn -0.128 0.473 0.872
vn 0.900 0.435 -0.000
vn 0.127 -0.570 0.812
vn -0.827 0.046 0.560
vn 0.127 -0.570 0.812
vn 0.963 -0.087 -0.257
vn 0.164 -0.360 0.918
vn 0.963 -0.087 -0.257
vn 0.164 -0.360 0.918
vn -0.827 0.046 0.560
vn 0.191 -0.130 0.973
vn -0.047 0.854 -0.518
vn 0.963 -0.087 -0.257
vn 0.191 -0.130 0.973
vn -0.047 0.854 -0.518
vn -0.827 0.046 0.560
vn -0.047 0.854 -0.518
vn 0.963 -0.087 -0.257
vn -0.047 0.854 -0.518
vn -0.827 0.046 0.560
vn 0.000 -0.392 0.920
vn -0.934 -0.066 0.352
vn 0.000 -0.392 0.920
vn 0.934 -0.066 0.352
vn 0.000 -0.200 0.980
vn 0.934 -0.066 0.352
vn 0.000 -0.200 0.980
vn -0.934 -0.066 0.352
vn 0.000 0.323 0.946
vn 0.934 -0.066 0.352
vn 0.000 0.323 0.946
vn -0.934 -0.066 0.352
vn 0.000 0.612 0.791
vn 0.934 -0.066 0.352
vn 0.000 0.612 0.791
vn -0.934 -0.066 0.352
vn -0.011 -0.541 0.841
vn 0.000 0.115 -0.993
vn -0.824 0.027 0.565
vn -0.011 -0.541 0.841
vn 0.000 0.115 -0.993
vn 0.894 -0.084 -0.441
vn -0.006 -0.282 0.959
vn 0.894 -0.084 -0.441
vn -0.006 -0.282 0.959
vn -0.824 0.027 0.565
vn 0.000 -0.000 1.000
vn 0.014 0.895 -0.446
vn 0.894 -0.084 -0.441
vn 0.000 -0.000 1.000
vn 0.014 0.895 -0.446
vn -0.824 0.027 0.565
vn 0.014 0.895 -0.446
vn 0.000 0.115 -0.993
vn 0.894 -0.084 -0.441
vn 0.014 0.895 -0.446
vn 0.000 0.115 -0.993
vn -0.824 0.027 0.565
vn 0.000 -1.000 0.000
vn 0.000 -0.000 -1.000
vn -1.000 0.000 0.000
vn 0.000 -1.000 0.000
vn 0.000 -0.000 -1.000
vn 1.000 0.000 0.000
vn 0.000 -1.000 0.000
vn 0.000 0.000 1.000
vn 1.000 0.000 0.000
vn 0.000 -1.000 0.000
vn 0.000 0.000 1.000
vn -1.000 0.000 0.000
vn 0.000 0.000 1.000
vn 1.000 0.000 0.000
vn 0.000 0.000 1.000
vn -1.000 0.000 0.000
vn 0.000 -0.000 -1.000
vn -1.000 0.000 0.000
vn 0.000 -0.000 -1.000
vn 1.000 0.000 0.000
vn 0.000 -1.000 0.000
vn 0.000 -0.000 -1.000
vn -1.000 0.000 0.000
vn 0.000 -1.000 0.000
vn 0.000 -0.000 -1.000
vn 1.000 0.000 0.000
vn 0.000 -1.000 0.000
vn 0.000 0.000 1.000
vn 1.000 0.000 0.000
vn 0.000 -1.000 0.000
vn 0.000 0.000 1.000
vn -1.000 0.000 0.000
vn 0.000 0.000 1.000
vn 1.000 0.000 0.000
vn 0.000 0.000 1.000
vn -1.000 0.000 0.000
vn 0.000 -0.000 -1.000
vn -1.000 0.000 0.000
vn 0.000 -0.000 -1.000
vn 1.000 0.000 0.000
vn 0.000 -1.000 0.000
vn 0.000 -0.000 -1.000
vn -1.000 0.000 0.000
vn 0.000 -1.000 0.000
vn 0.000 -0.000 -1.000
vn 1.000 0.000 0.000
vn 0.000 -1.000 0.000
vn 0.000 0.000 1.000
vn 1.000 0.000 0.000
vn 0.000 -1.000 0.000
vn 0.000 0.000 1.000
vn -1.000 0.000 0.000
vn 0.000 0.000 1.000
vn 1.000 0.000 0.000
vn 0.000 0.000 1.000
vn -1.000 0.000 0.000
vn 0.000 -0.000 -1.000
vn -1.000 0.000 0.000
vn 0.000 -0.000 -1.000
vn 1.000 0.000 0.000
vn 0.747 -0.665 0.000
vn 0.040 -0.021 -0.999
vn 0.747 -0.665 0.000
vn 0.040 -0.021 -0.999
vn 0.747 -0.665 0.000
vn 0.040 -0.021 0.999
vn 0.747 -0.665 0.000
vn 0.040 -0.021 0.999
vn 0.040 -0.021 0.999
vn -0.157 0.988 -0.000
vn 0.040 -0.021 0.999
vn -0.157 0.988 -0.000
vn -0.157 0.988 -0.000
vn 0.040 -0.021 -0.999
vn -0.157 0.988 -0.000
vn 0.040 -0.021 -0.999
vn 0.869 -0.495 0.000
vn 0.036 -0.016 -0.999
vn 0.953 -0.304 0.000
vn -0.157 0.988 -0.000
vn 0.036 -0.016 -0.999
vn 0.953 -0.304 0.000
vn -0.157 0.988 -0.000
vn 0.036 -0.016 0.999
vn 0.869 -0.495 0.000
vn 0.036 -0.016 0.999
vn -0.157 0.988 -0.000
vn 0.038 -0.018 0.999
vn -0.157 0.988 -0.000
vn 0.038 -0.018 -0.999
vn 0.038 -0.018 -0.999
vn 0.747 -0.665 0.000
vn 0.747 -0.665 0.000
vn 0.038 -0.018 0.999
vn 0.000 -1.000 0.000
vn -0.199 -0.068 -0.978
vn -0.968 -0.252 0.000
vn 0.000 -1.000 0.000
vn -0.100 -0.062 -0.993
vn 0.000 -1.000 0.000
vn -0.100 -0.062 0.993
vn 0.000 -1.000 0.000
vn -0.199 -0.068 0.978
vn -0.968 -0.252 0.000
vn -0.100 -0.062 0.993
vn -0.000 1.000 -0.000
vn -0.199 -0.068 0.978
vn -0.000 1.000 -0.000
vn -0.968 -0.252 0.000
vn -0.000 1.000 -0.000
vn -0.100 -0.062 -0.993
vn -0.000 1.000 -0.000
vn -0.199 -0.068 -0.978
vn -0.968 -0.252 0.000
vn 0.968 -0.252 0.000
vn 0.199 -0.068 -0.978
vn 0.000 -1.000 0.000
vn 0.968 -0.252 0.000
vn 0.000 1.000 -0.000
vn 0.199 -0.068 -0.978
vn 0.968 -0.252 0.000
vn 0.000 1.000 -0.000
vn 0.199 -0.068 0.978
vn 0.968 -0.252 0.000
vn 0.000 -1.000 0.000
vn 0.199 -0.068 0.978
vn 0.000 1.000 -0.000
vn 0.100 -0.062 0.993
vn 0.000 1.000 -0.000
vn 0.100 -0.062 -0.993
vn 0.100 -0.062 -0.993
vn 0.000 -1.000 0.000
vn 0.000 -1.000 0.000
vn 0.100 -0.062 0.993
vn -0.179 -0.242 0.954
vn 0.937 -0.348 0.000
vn -0.179 -0.242 0.954
vn 0.937 -0.348 0.000
vn 0.000 1.000 -0.000
vn -0.179 -0.242 0.954
vn -0.937 -0.348 0.000
vn 0.000 1.000 -0.000
vn -0.179 -0.242 0.954
vn -0.937 -0.348 0.000
vn -0.000 1.000 -0.000
vn 0.128 0.473 -0.872
vn -0.900 0.435 -0.000
vn -0.000 1.000 -0.000
vn 0.128 0.473 0.872
vn -0.900 0.435 -0.000
vn -0.000 1.000 -0.000
vn 0.860 0.511 -0.000
vn 0.128 0.473 0.872
vn -0.000 1.000 -0.000
vn 0.128 0.473 -0.872
vn 0.860 0.511 -0.000
vn -0.179 -0.242 -0.954
vn 0.937 -0.348 0.000
vn -0.000 1.000 -0.000
vn -0.179 -0.242 -0.954
vn 0.937 -0.348 0.000
vn -0.179 -0.242 -0.954
vn -0.937 -0.348 0.000
vn -0.179 -0.242 -0.954
vn -0.937 -0.348 0.000
vn 0.000 1.000 -0.000
vn 0.000 1.000 -0.000
vn 0.128 0.473 -0.872
vn -0.900 0.435 -0.000
vn 0.000 1.000 -0.000
vn 0.128 0.473 -0.872
vn 0.860 0.511 -0.000
vn 0.000 1.000 -0.000
vn 0.860 0.511 -0.000
vn 0.128 0.473 0.872
vn -0.000 1.000 -0.000
vn 0.128 0.473 0.872
vn -0.900 0.435 -0.000
vn -0.747 -0.665 0.000
vn -0.040 -0.021 -0.999
vn -0.747 -0.665 0.000
vn -0.040 -0.021 0.999
vn -0.747 -0.665 0.000
vn -0.040 -0.021 0.999
vn -0.747 -0.665 0.000
vn -0.040 -0.021 -0.999
vn -0.040 -0.021 0.999
vn 0.157 0.988 -0.000
vn -0.040 -0.021 0.999
vn 0.157 0.988 -0.000
vn 0.157 0.988 -0.000
vn -0.040 -0.021 -0.999
vn 0.157 0.988 -0.000
vn -0.040 -0.021 -0.999
vn -0.869 -0.495 0.000
vn -0.036 -0.016 -0.999
vn -0.869 -0.495 0.000
vn -0.036 -0.016 0.999
vn -0.953 -0.304 0.000
vn 0.157 0.988 -0.000
vn -0.036 -0.016 0.999
vn -0.953 -0.304 0.000
vn 0.157 0.988 -0.000
vn -0.036 -0.016 -0.999
vn 0.157 0.988 -0.000
vn -0.038 -0.018 0.999
vn 0.157 0.988 -0.000
vn -0.038 -0.018 -0.999
vn -0.038 -0.018 -0.999
vn -0.747 -0.665 0.000
vn -0.747 -0.665 0.000
vn -0.038 -0.018 0.999
vn 0.011 -0.541 0.841
vn 0.000 0.115 -0.993
vn 0.824 0.027 0.565
vn 0.006 -0.282 0.959
vn 0.824 0.027 0.565
vn 0.006 -0.282 0.959
vn -0.894 -0.084 -0.441
vn 0.011 -0.541 0.841
vn 0.000 0.115 -0.993
vn -0.894 -0.084 -0.441
vn 0.000 0.000 1.000
vn -0.014 0.895 -0.446
vn 0.824 0.027 0.565
vn 0.000 0.000 1.000
vn -0.014 0.895 -0.446
vn -0.894 -0.084 -0.441
vn -0.014 0.895 -0.446
vn 0.000 0.115 -0.993
vn 0.824 0.027 0.565
vn -0.014 0.895 -0.446
vn 0.000 0.115 -0.993
vn -0.894 -0.084 -0.441
vn -0.127 -0.570 0.812
vn 0.827 0.046 0.560
vn -0.164 -0.360 0.918
vn 0.827 0.046 0.560
vn -0.164 -0.360 0.918
vn -0.963 -0.087 -0.257
vn -0.127 -0.570 0.812
vn -0.963 -0.087 -0.257
vn -0.191 -0.130 0.973
vn 0.047 0.854 -0.518
vn 0.827 0.046 0.560
vn -0.191 -0.130 0.973
vn 0.047 0.854 -0.518
vn -0.963 -0.087 -0.257
vn 0.047 0.854 -0.518
vn 0.827 0.046 0.560
vn 0.047 0.854 -0.518
vn -0.963 -0.087 -0.257
vn 0.000 -1.000 0.000
vn 0.000 -0.000 -1.000
vn -1.000 0.000 0.000
vn 0.000 -1.000 0.000
vn 0.000 -0.000 -1.000
vn 1.000 0.000 0.000
vn 0.000 -1.000 0.000
vn 0.000 0.000 1.000
vn 1.000 0.000 0.000
vn 0.000 -1.000 0.000
vn 0.000 0.000 1.000
vn -1.000 0.000 0.000
vn 0.000 0.000 1.000
vn 1.000 0.000 0.000
vn 0.000 0.000 1.000
vn -1.000 0.000 0.000
vn 0.000 -0.000 -1.000
vn -1.000 0.000 0.000
vn 0.000 -0.000 -1.000
vn 1.000 0.000 0.000
f 1/1/1 2/2/3 3/3/5 4/4/8 
f 5/5/11 6/6/14 7/7/17 8/8/20 
f 9/9/23 10/10/26 11/11/29 12/12/31 
f 11/13/30 10/14/27 3/15/6 2/2/4 
f 9/16/24 12/17/32 1/1/2 4/18/9 
f 4/4/10 3/3/7 13/19/33 14/20/36 
f 3/3/7 10/10/28 15/21/39 13/19/33 
f 10/10/28 9/9/25 16/22/42 15/21/39 
f 9/9/25 4/4/10 14/20/36 16/22/42 
f 14/20/37 13/19/34 6/6/15 5/5/12 
f 13/19/35 15/21/40 7/7/18 6/6/16 
f 15/21/41 16/22/43 8/8/21 7/7/19 
f 16/22/44 14/20/38 5/5/13 8/8/22 
f 17/23/45 18/24/47 19/25/49 20/26/51 
f 20/26/51 19/25/49 21/27/53 22/28/56 
f 22/28/57 21/27/54 23/29/59 24/30/61 
f 18/24/48 23/31/60 21/32/55 19/25/50 
f 24/33/62 17/23/46 20/26/52 22/34/58 
f 25/35/63 26/36/65 27/37/67 28/38/69 
f 28/38/69 27/37/67 29/39/71 30/40/73 
f 30/40/73 29/39/71 31/41/75 32/42/77 
f 26/36/66 31/43/76 29/44/72 27/37/68 
f 32/45/78 25/35/64 28/38/70 30/46/74 
f 33/47/79 34/48/82 35/49/85 36/50/87 
f 36/50/87 35/49/85 37/51/89 38/52/92 
f 38/52/93 37/51/90 39/53/95 40/54/98 
f 40/54/99 39/53/96 34/55/83 33/56/80 
f 34/48/84 39/57/97 37/58/91 35/49/86 
f 40/59/100 33/47/81 36/50/88 38/60/94 
f 41/61/101 42/62/104 43/63/107 44/64/110 
f 44/64/111 43/63/108 45/65/113 46/66/115 
f 47/67/117 48/68/119 42/69/105 41/70/102 
f 42/62/106 48/71/120 45/72/114 43/63/109 
f 47/73/118 41/61/103 44/64/112 46/74/116 
f 49/75/121 50/76/124 51/77/127 52/78/130 
f 52/78/131 51/77/128 53/79/133 54/80/135 
f 55/81/137 56/82/139 50/83/125 49/84/122 
f 50/76/126 56/85/140 53/86/134 51/77/129 
f 55/87/138 49/75/123 52/78/132 54/88/136 
f 57/89/141 58/90/144 59/91/147 60/92/150 
f 60/92/151 59/91/148 61/93/153 62/94/155 
f 63/95/157 64/96/159 58/97/145 57/98/142 
f 58/90/146 64/99/160 61/100/154 59/91/149 
f 63/101/158 57/89/143 60/92/152 62/102/156 
f 65/103/161 66/104/163 67/105/165 68/106/167 
f 68/106/168 67/105/166 69/107/169 70/108/171 
f 70/108/172 69/107/170 71/109/173 72/110/175 
f 72/110/176 71/109/174 66/111/164 65/112/162 
f 73/113/177 74/114/179 75/115/182 76/116/185 
f 77/117/187 75/118/183 74/119/180 78/120/189 
f 79/121/191 78/120/190 74/119/181 73/122/178 
f 80/123/193 79/124/192 73/113/177 76/116/185 
f 77/117/188 80/123/194 76/116/186 75/118/184 
f 69/107/170 77/117/187 78/120/189 71/109/173 
f 66/111/164 71/109/174 78/120/190 79/121/191 
f 67/105/165 66/104/163 79/124/192 80/123/193 
f 69/107/169 67/105/166 80/123/194 77/117/188 
f 81/125/195 82/126/198 83/127/200 84/128/202 
f 84/128/203 83/127/201 85/129/205 86/130/207 
f 86/130/208 85/129/206 87/131/210 88/132/212 
f 88/132/213 87/131/211 82/133/199 81/134/196 
f 89/135/215 90/136/218 91/137/221 92/138/224 
f 88/139/214 81/125/197 84/128/204 86/140/209 
f 93/141/227 91/142/222 90/143/219 94/144/229 
f 95/145/231 94/144/230 90/143/220 89/146/216 
f 96/147/233 95/148/232 89/135/217 92/138/225 
f 93/141/228 96/147/234 92/138/226 91/142/223 
f 85/129/206 93/141/227 94/144/229 87/131/210 
f 82/133/199 87/131/211 94/144/230 95/145/231 
f 83/127/200 82/126/198 95/148/232 96/147/233 
f 85/129/205 83/127/201 96/147/234 93/141/228 
f 105/149/235 106/150/237 107/151/240 108/152/243 
f 109/153/245 110/154/248 111/155/251 112/156/254 
f 113/157/257 114/158/260 115/159/262 116/160/264 
f 115/161/263 108/152/244 107/162/241 116/163/265 
f 113/164/258 106/165/238 105/149/236 114/166/261 
f 106/150/239 117/167/267 118/168/270 107/151/242 
f 107/151/242 118/168/270 119/169/273 116/160/266 
f 116/160/266 119/169/273 120/170/276 113/157/259 
f 113/157/259 120/170/276 117/167/267 106/150/239 
f 117/167/268 109/153/246 112/156/255 118/168/271 
f 118/168/272 112/156/256 111/155/252 119/169/274 
f 119/169/275 111/155/253 110/154/249 120/170/277 
f 120/170/278 110/154/250 109/153/247 117/167/269 
f 121/171/279 122/172/281 123/173/283 124/174/285 
f 122/172/282 125/175/287 126/176/289 123/173/284 
f 125/175/288 127/177/291 128/178/293 126/176/290 
f 127/177/292 121/179/280 124/180/286 128/178/294 
f 129/181/295 130/182/297 131/183/299 132/184/302 
f 133/185/305 134/186/307 132/187/303 131/188/300 
f 135/189/309 129/190/296 132/187/304 134/186/308 
f 136/191/311 130/182/297 129/181/295 135/192/310 
f 133/185/306 131/188/301 130/182/298 136/191/312 
f 126/176/290 128/178/293 134/186/307 133/185/305 
f 124/180/286 135/189/309 134/186/308 128/178/294 
f 123/173/283 136/191/311 135/192/310 124/174/285 
f 126/176/289 133/185/306 136/191/312 123/173/284 
f 137/193/313 138/194/316 139/195/318 140/196/320 
f 138/194/316 141/197/323 142/198/326 139/195/318 
f 141/197/324 143/199/329 144/200/332 142/198/327 
f 143/199/330 137/201/314 140/202/321 144/200/333 
f 140/196/322 139/195/319 142/203/328 144/204/334 
f 143/205/331 141/206/325 138/194/317 137/193/315 
f 145/207/335 146/208/337 147/209/339 148/210/341 
f 146/208/337 149/211/343 150/212/346 147/209/339 
f 149/211/344 151/213/349 152/214/351 150/212/347 
f 148/210/342 147/209/340 150/215/348 152/216/352 
f 151/217/350 149/218/345 146/208/338 145/207/336 
f 153/219/353 154/220/356 155/221/359 156/222/362 
f 156/222/363 155/221/360 157/223/365 158/224/367 
f 159/225/369 160/226/371 154/227/357 153/228/354 
f 154/220/358 160/229/372 157/230/366 155/221/361 
f 159/231/370 153/219/355 156/222/364 158/232/368 
